<svg xmlns="http://www.w3.org/2000/svg" width="148.819" height="68.054" viewBox="0 0 148.819 68.054">
  <g id="Gruppe_19943" transform="translate(-1165.485 -1908.492)">
    <path id="Pfad_16473" d="M545.663,800.546a10.417,10.417,0,0,0,10.417-10.417V732.492h-138.4a10.417,10.417,0,0,0-10.418,10.417v47.22a10.417,10.417,0,0,0,10.418,10.417Z" transform="translate(758.224 1176)" fill="#fff"/>
    <path id="Pfad_16474" d="M532.217,757.266c-.022,0-.042,0-.064,0a10.842,10.842,0,0,1,1.455,5.489c-.031,3.893-1.611,6.628-4.032,8.294a7.708,7.708,0,0,0,3.111.658,6.908,6.908,0,0,0,7.163-7.164,7.41,7.41,0,0,0-7.633-7.28" transform="translate(758.224 1176)" fill="#bce4fa"/>
    <path id="Pfad_16475" d="M524.938,764.076c-.076-3.892,2.908-6.78,7.216-6.808a12.11,12.11,0,0,0-10.253-6.04,10.387,10.387,0,0,0-10.819,10.819c.1,6.694,5.144,11.061,11.53,11a12.438,12.438,0,0,0,6.964-1.993,7.764,7.764,0,0,1-4.638-6.975" transform="translate(758.224 1176)" fill="#007ac3"/>
    <path id="Pfad_16476" d="M533.609,762.757a10.855,10.855,0,0,0-1.455-5.489c-4.308.029-7.291,2.917-7.216,6.808a7.768,7.768,0,0,0,4.639,6.976c2.421-1.667,4-4.4,4.032-8.295" transform="translate(758.224 1176)" fill="#33aae2"/>
    <path id="Pfad_16477" d="M539.863,755.254a2.309,2.309,0,0,0,2.113,2.192,2.1,2.1,0,0,0,2.231-2.114,2.2,2.2,0,0,0-2.231-1.879c-1.363-.069-2.168.75-2.113,1.8" transform="translate(758.224 1176)" fill="#bce4fa"/>
    <path id="Pfad_16478" d="M512.688,773.612A2.391,2.391,0,0,0,510.167,776a2.3,2.3,0,0,0,2.521,2.123,2.1,2.1,0,0,0,2.408-1.993,2.619,2.619,0,0,0-2.408-2.518" transform="translate(758.224 1176)" fill="#007ac3"/>
    <path id="Pfad_16479" d="M531.592,778.526a1.651,1.651,0,0,1,1.525-1.609,1.538,1.538,0,0,1,1.611,1.524,1.578,1.578,0,0,1-1.611,1.357,1.268,1.268,0,0,1-1.525-1.187Z" transform="translate(758.224 1176)" fill="#fc0"/>
    <path id="Pfad_16480" d="M523.475,772.731a4.5,4.5,0,0,1,4.436-4.434,3.978,3.978,0,0,1,4.161,4.162,4.239,4.239,0,0,1-4.436,4.231,3.81,3.81,0,0,1-4.161-3.959" transform="translate(758.224 1176)" fill="#fc0"/>
    <path id="Pfad_16481" d="M429.044,762.15a7.5,7.5,0,0,1-3.408-.971l.79-1.614a6.153,6.153,0,0,0,2.8.955,1.032,1.032,0,0,0,1.12-.955c0-.576-.412-.872-1.3-1.037l-.988-.181a2.977,2.977,0,0,1-1.547-.856,2.548,2.548,0,0,1-.478-1.514c0-1.647,1.3-2.75,3.26-2.75a6.34,6.34,0,0,1,3.013.79l-.725,1.482a4.452,4.452,0,0,0-2.074-.609c-.642,0-1.07.329-1.07.823,0,.428.28.659,1.053.856l1.021.264a2.631,2.631,0,0,1,1.68.954,2.238,2.238,0,0,1,.46,1.433c0,1.745-1.448,2.93-3.6,2.93" transform="translate(758.224 1176)" fill="#003e77"/>
    <path id="Pfad_16482" d="M436.919,762.085a2.279,2.279,0,0,1-2.272-1.235,3.086,3.086,0,0,1-.148-1.3v-4.577h-.84v-1.515h.84a14.655,14.655,0,0,1,.082-1.992l2.239-.559a25.249,25.249,0,0,0-.131,2.551h1.975l-.56,1.515h-1.415V759.2c0,1.07.2,1.35.954,1.35a2.851,2.851,0,0,0,.79-.165l.28,1.317a4.616,4.616,0,0,1-1.794.379" transform="translate(758.224 1176)" fill="#003e77"/>
    <path id="Pfad_16483" d="M446.063,762.315a2.352,2.352,0,0,1-1.186-1.021,4.148,4.148,0,0,1-.511.445,2.913,2.913,0,0,1-1.7.461c-1.877,0-2.9-.955-2.9-2.634,0-1.976,1.366-2.9,4.05-2.9.164,0,.313,0,.494.017v-.346c0-.939-.181-1.252-.988-1.252a4.642,4.642,0,0,0-2.437.956l-.938-1.581a8.049,8.049,0,0,1,1.367-.691,5.7,5.7,0,0,1,2.3-.495c1.416,0,2.388.527,2.717,1.466a3.892,3.892,0,0,1,.148,1.514l-.049,2.832a1.8,1.8,0,0,0,.79,1.877Zm-1.878-4.116c-1.531,0-2.058.28-2.058,1.284a1,1,0,0,0,.972,1.1,1.6,1.6,0,0,0,1.152-.576l.033-1.811Z" transform="translate(758.224 1176)" fill="#003e77"/>
    <path id="Pfad_16484" d="M453.942,761.888a1.511,1.511,0,0,1-.132-.494,2.829,2.829,0,0,1-1.942.708c-2.14,0-3.491-1.663-3.491-4.281,0-2.634,1.466-4.445,3.606-4.445a2.268,2.268,0,0,1,1.5.478,10.247,10.247,0,0,1-.066-1.252v-2.9l2.19.346v8.758a8.237,8.237,0,0,0,.313,3.079Zm-.494-6.207a1.841,1.841,0,0,0-1.2-.543c-.987,0-1.415.823-1.415,2.7,0,1.811.378,2.4,1.531,2.4a1.579,1.579,0,0,0,1.086-.543Z" transform="translate(758.224 1176)" fill="#003e77"/>
    <path id="Pfad_16485" d="M460.79,762.085a2.28,2.28,0,0,1-2.272-1.235,3.1,3.1,0,0,1-.148-1.3v-4.577h-.839v-1.515h.839a14.479,14.479,0,0,1,.083-1.992l2.238-.559a25.249,25.249,0,0,0-.131,2.551h1.975l-.559,1.515H460.56V759.2c0,1.07.2,1.35.955,1.35a2.864,2.864,0,0,0,.79-.165l.28,1.317a4.621,4.621,0,0,1-1.795.379" transform="translate(758.224 1176)" fill="#003e77"/>
    <path id="Pfad_16486" d="M472.582,761.887h-2.025l-.757-2.9c-.182-.674-.379-1.481-.478-2.041-.065-.4-.082-.51-.132-.84a10.446,10.446,0,0,1-.2,1.087c-.164.724-.527,2.173-.723,2.963l-.429,1.729h-2.058l-2.3-8.281,2.19-.247.691,3.243c.214.972.478,2.618.478,2.618a27.153,27.153,0,0,1,.608-2.93l.791-2.832h2.074l.676,2.782c.379,1.564.625,2.98.625,2.98.049-.362.23-1.679.461-2.749l.642-3.013h2.272Z" transform="translate(758.224 1176)" fill="#003e77"/>
    <path id="Pfad_16487" d="M478.181,758.364v.066c0,1.3.642,2.042,1.778,2.042a3.292,3.292,0,0,0,2.14-.84l.856,1.317a4.833,4.833,0,0,1-3.177,1.169c-2.42,0-3.984-1.712-3.984-4.363a4.614,4.614,0,0,1,1.053-3.342,3.316,3.316,0,0,1,2.651-1.136,3.449,3.449,0,0,1,2.437.889,4.948,4.948,0,0,1,1.119,3.688v.51Zm2.585-1.712a2.17,2.17,0,0,0-.264-1.268,1.067,1.067,0,0,0-.971-.493c-.839,0-1.316.658-1.316,1.827v.033h2.551Z" transform="translate(758.224 1176)" fill="#003e77"/>
    <path id="Pfad_16488" d="M489.07,755.384a1.246,1.246,0,0,0-.642-.164,1.757,1.757,0,0,0-1.35.707v5.96H484.87v-5.63a7.654,7.654,0,0,0-.312-2.47l1.977-.527a2.721,2.721,0,0,1,.345,1.2,2.586,2.586,0,0,1,1.976-1.2,1.7,1.7,0,0,1,.823.181Z" transform="translate(758.224 1176)" fill="#003e77"/>
    <path id="Pfad_16489" d="M490.749,761.887v-9.5a13.18,13.18,0,0,0-.148-2.19l2.222-.543a20,20,0,0,1,.132,2.733v9.5Zm5.088,0-2.832-4.774,2.156-3.655h2.651l-2.684,3.523,3.31,4.906Z" transform="translate(758.224 1176)" fill="#003e77"/>
    <path id="Pfad_16490" d="M500.937,758.364v.066c0,1.3.642,2.042,1.778,2.042a3.292,3.292,0,0,0,2.14-.84l.856,1.317a4.839,4.839,0,0,1-3.177,1.169c-2.42,0-3.985-1.712-3.985-4.363a4.614,4.614,0,0,1,1.054-3.342,3.314,3.314,0,0,1,2.651-1.136,3.447,3.447,0,0,1,2.437.889,4.952,4.952,0,0,1,1.12,3.688v.51Zm2.585-1.712a2.177,2.177,0,0,0-.264-1.268,1.067,1.067,0,0,0-.971-.493c-.839,0-1.317.658-1.317,1.827v.033h2.552Z" transform="translate(758.224 1176)" fill="#003e77"/>
    <path id="Pfad_16491" d="M431.27,778.1v-5.663c0-.84-.23-1.152-.856-1.152a2.918,2.918,0,0,0-1.745.773V778.1H426.43v-9.746a8.884,8.884,0,0,0-.165-1.926l2.256-.527a11.428,11.428,0,0,1,.148,2.058v1.679c0,.263-.033.609-.033.708a3.691,3.691,0,0,1,2.387-.9,2.181,2.181,0,0,1,2.19,1.2,3.97,3.97,0,0,1,.213,1.564V778.1Z" transform="translate(758.224 1176)" fill="#007ac3"/>
    <path id="Pfad_16492" d="M437.955,774.576v.065c0,1.3.643,2.042,1.779,2.042a3.294,3.294,0,0,0,2.14-.84l.856,1.317a4.834,4.834,0,0,1-3.178,1.169c-2.42,0-3.984-1.712-3.984-4.363a4.611,4.611,0,0,1,1.054-3.342,3.312,3.312,0,0,1,2.65-1.136,3.448,3.448,0,0,1,2.437.89,4.946,4.946,0,0,1,1.119,3.687v.511Zm2.585-1.713a2.178,2.178,0,0,0-.263-1.268,1.068,1.068,0,0,0-.971-.493c-.84,0-1.318.658-1.318,1.827v.033h2.552Z" transform="translate(758.224 1176)" fill="#007ac3"/>
    <path id="Pfad_16493" d="M446.023,768.714a1.359,1.359,0,0,1-1.35-1.366,1.377,1.377,0,0,1,1.383-1.366,1.345,1.345,0,0,1,1.333,1.366,1.363,1.363,0,0,1-1.366,1.366m-1.1,9.384v-8.281l2.206-.346V778.1Z" transform="translate(758.224 1176)" fill="#007ac3"/>
    <path id="Pfad_16494" d="M454.663,778.1a1.5,1.5,0,0,1-.132-.493,2.828,2.828,0,0,1-1.942.707c-2.14,0-3.49-1.662-3.49-4.28,0-2.634,1.465-4.445,3.605-4.445a2.277,2.277,0,0,1,1.5.477,10.226,10.226,0,0,1-.066-1.251v-2.9l2.19.346v8.758a8.2,8.2,0,0,0,.313,3.078Zm-.494-6.206a1.841,1.841,0,0,0-1.2-.544c-.987,0-1.415.824-1.415,2.7,0,1.812.378,2.4,1.531,2.4a1.579,1.579,0,0,0,1.086-.543Z" transform="translate(758.224 1176)" fill="#007ac3"/>
    <path id="Pfad_16495" d="M460.751,774.576v.065c0,1.3.642,2.042,1.778,2.042a3.29,3.29,0,0,0,2.14-.84l.856,1.317a4.832,4.832,0,0,1-3.177,1.169c-2.42,0-3.984-1.712-3.984-4.363a4.611,4.611,0,0,1,1.054-3.342,3.312,3.312,0,0,1,2.65-1.136,3.448,3.448,0,0,1,2.437.89,4.946,4.946,0,0,1,1.119,3.687v.511Zm2.585-1.713a2.17,2.17,0,0,0-.264-1.268,1.067,1.067,0,0,0-.971-.493c-.839,0-1.317.658-1.317,1.827v.033h2.552Z" transform="translate(758.224 1176)" fill="#007ac3"/>
    <path id="Pfad_16496" d="M469.979,778.3a1.977,1.977,0,0,1-1.959-1.152,4.56,4.56,0,0,1-.2-1.893v-6.289a21.835,21.835,0,0,0-.114-2.536l2.255-.51a12.585,12.585,0,0,1,.115,2.19v6.568c0,1.449.016,1.647.148,1.877a.505.505,0,0,0,.445.231.731.731,0,0,0,.247-.033l.378,1.317a3.679,3.679,0,0,1-1.317.23" transform="translate(758.224 1176)" fill="#007ac3"/>
    <path id="Pfad_16497" d="M479.028,777.6a2.788,2.788,0,0,1-1.844.658,2.332,2.332,0,0,1-1.877-.774,1.411,1.411,0,0,1-.23.609H473.1a3.872,3.872,0,0,0,.214-1.794v-7.8a9,9,0,0,0-.148-2.075l2.255-.526a11.39,11.39,0,0,1,.083,1.5v1.993a4.575,4.575,0,0,1-.049.74,2.309,2.309,0,0,1,1.794-.675c2.058,0,3.342,1.647,3.342,4.281a4.7,4.7,0,0,1-1.564,3.869m-1.037-5.252a1.208,1.208,0,0,0-1.2-1.07,1.694,1.694,0,0,0-1.252.675v3.885a1.738,1.738,0,0,0,1.235.543,1.032,1.032,0,0,0,1.071-.658,4.613,4.613,0,0,0,.247-1.943,6.061,6.061,0,0,0-.1-1.432" transform="translate(758.224 1176)" fill="#007ac3"/>
    <path id="Pfad_16498" d="M484.748,774.576v.065c0,1.3.642,2.042,1.779,2.042a3.291,3.291,0,0,0,2.139-.84l.857,1.317a4.834,4.834,0,0,1-3.178,1.169c-2.42,0-3.985-1.712-3.985-4.363a4.616,4.616,0,0,1,1.054-3.342,3.314,3.314,0,0,1,2.651-1.136,3.445,3.445,0,0,1,2.436.89,4.941,4.941,0,0,1,1.12,3.687v.511Zm2.585-1.713a2.17,2.17,0,0,0-.264-1.268,1.068,1.068,0,0,0-.971-.493c-.839,0-1.318.658-1.318,1.827v.033h2.553Z" transform="translate(758.224 1176)" fill="#007ac3"/>
    <path id="Pfad_16499" d="M495.96,771.595a1.246,1.246,0,0,0-.642-.164,1.757,1.757,0,0,0-1.35.708V778.1h-2.206v-5.63a7.654,7.654,0,0,0-.312-2.47l1.974-.527a2.708,2.708,0,0,1,.347,1.2,2.579,2.579,0,0,1,1.974-1.2,1.7,1.7,0,0,1,.824.181Z" transform="translate(758.224 1176)" fill="#007ac3"/>
    <path id="Pfad_16500" d="M504.6,771.218a4.772,4.772,0,0,1-.576-.05,2.035,2.035,0,0,1,.493,1.383c0,1.449-1.316,2.5-3.111,2.5a2.77,2.77,0,0,1-.329-.016c-.56.263-.872.461-.872.691,0,.116.131.2.362.2l1.184.016a3.435,3.435,0,0,1,2.553.758,2.3,2.3,0,0,1,.724,1.794,2.4,2.4,0,0,1-.675,1.745,4.544,4.544,0,0,1-3.325,1.087,4.715,4.715,0,0,1-3.194-.906,1.979,1.979,0,0,1-.693-1.5,1.68,1.68,0,0,1,.2-.856h2.041a1.191,1.191,0,0,0-.1.543c0,.675.559,1.038,1.579,1.038a2.662,2.662,0,0,0,1.384-.281,1.024,1.024,0,0,0,.543-.856c0-.757-.675-.987-1.547-1l-.939-.016a6,6,0,0,1-2.025-.264,1.071,1.071,0,0,1-.642-1.1c0-.543.164-1.053,1.547-1.415a2.184,2.184,0,0,1-1.81-2.338c0-1.729,1.4-2.848,3.555-2.848a6.077,6.077,0,0,1,1.515.214,4.43,4.43,0,0,0,1.037.181,2.649,2.649,0,0,0,1.745-.725l.922,1.4a2.1,2.1,0,0,1-1.547.626m-3.688-.083a1.171,1.171,0,0,0-1.317,1.251c0,.856.527,1.2,1.3,1.2.873,0,1.351-.428,1.351-1.2a1.184,1.184,0,0,0-1.334-1.251" transform="translate(758.224 1176)" fill="#007ac3"/>
  </g>
</svg>