<svg xmlns="http://www.w3.org/2000/svg" viewBox="0 0 1880.46 318.66">
  <circle cx="141.73" cy="141.73" fill="#007377" r="141.73"/>
  <g fill="#fff" fill-rule="evenodd">
    <path d="m76.93 86.62c-1.3-.31-2.79-.9-4.08-1.43-.31-.13-.39-.01-.47.15-1.36 2.7-5.55 3.69-9.75 3.89-.61.03-.52.66-.19.84 3.05 1.64 6.87.77 7.5 1.59.06.08.05.5-.05.57-4.06 3.18-6.71 7.41-10.19 10.78-.22.42.57.59.97.47.74-.24 3.72-1.65 4.22-2.05 1-.79 2.45-2.74 3.14-1.49.35 2.24-.39 6.77 2.15 8.8-.11-10.65 9.05-25.47 19.36-12.77 2.45-1.71 4.18-3.4 5.88-5.84-12.7-10.31 2.11-19.47 12.77-19.36-2.05-2.55-6.56-1.8-8.8-2.15-1.26-.69.69-2.14 1.49-3.13.41-.51 1.81-3.48 2.05-4.22.13-.4-.03-1.2-.47-.97-3.36 3.48-7.59 6.13-10.77 10.19-.08.09-.49.1-.57.04-.82-.62.05-4.45-1.59-7.49-.19-.34-.82-.42-.86.19-.19 4.21-1.18 8.39-3.87 9.75-.16.09-.28.16-.16.48 1.2 2.85 2.63 6.78.68 7.1-4.39.73-7.1-5.68-7.26-9.94-.16-4.56 2.55-6.22 1.27-10.78-.03-.1-.2-.13-.26-.05-2.8 3.82-4.2 6.08-6.38 8.89-3.74-4.22-9.34-8.41-16.49-11.9 3.46 7.13 7.65 12.73 11.87 16.48-2.86 2.22-4.75 3.04-8.57 6.15-.22.18-.02.54.24.59 4.02.73 5.99-1.52 10.28-1.36 4.26.16 10.67 2.86 9.94 7.25-.18 1.08-1.45 1.13-3.03.75"/>
    <path d="m193.65 96.22c10.3-12.7 19.47 2.13 19.35 12.77 2.55-2.03 1.81-6.57 2.15-8.8.7-1.26 2.14.69 3.14 1.49.51.41 3.48 1.82 4.21 2.05.41.13 1.2-.04.98-.47-3.47-3.36-6.13-7.59-10.18-10.77-.09-.07-.11-.49-.04-.57.61-.82 4.44.05 7.49-1.59.33-.19.41-.82-.19-.85-4.2-.2-8.39-1.18-9.76-3.88-.08-.17-.16-.29-.47-.16-2.85 1.2-6.78 2.64-7.1.68-.73-4.39 5.68-7.09 9.94-7.25 4.56-.17 6.22 2.54 10.77 1.26.1-.03.13-.2.05-.25-3.81-2.81-6.08-4.21-8.89-6.38 4.22-3.75 8.41-9.34 11.91-16.49-7.14 3.46-12.75 7.66-16.49 11.87-2.21-2.86-3.05-4.76-6.14-8.57-.18-.22-.54-.02-.59.24-.73 4.02 1.52 5.99 1.36 10.28-.16 4.26-2.86 10.67-7.25 9.94-1.96-.32-.51-4.25.68-7.1.13-.32 0-.39-.15-.48-2.7-1.37-3.68-5.55-3.88-9.75-.03-.6-.67-.53-.85-.19-1.64 3.05-.76 6.87-1.59 7.49-.08.06-.49.05-.57-.04-3.18-4.06-7.41-6.71-10.78-10.19-.43-.23-.59.57-.47.97.24.74 1.65 3.71 2.06 4.22.8 1 2.75 2.44 1.49 3.14-2.23.35-6.76-.4-8.8 2.15 10.66-.12 25.48 9.05 12.77 19.35 1.72 2.44 3.41 4.17 5.85 5.88"/>
    <path d="m187.74 193.48c12.7 10.3-2.12 19.47-12.77 19.35 2.03 2.55 6.56 1.8 8.79 2.15 1.27.69-.69 2.14-1.48 3.14-.41.51-1.82 3.48-2.05 4.22-.12.4.04 1.2.47.97 3.36-3.47 7.59-6.14 10.77-10.19.07-.09.5-.1.57-.04.83.62-.05 4.45 1.59 7.49.18.35.81.42.84-.19.2-4.2 1.18-8.38 3.88-9.76.16-.08.29-.15.15-.48-1.19-2.84-2.63-6.77-.68-7.09 4.39-.73 7.1 5.68 7.26 9.94.18 4.55-2.54 6.21-1.26 10.77.03.1.2.13.27.05 2.8-3.81 4.2-6.08 6.37-8.88 3.75 4.22 9.34 8.4 16.49 11.9-3.46-7.13-7.66-12.74-11.87-16.48 2.87-2.21 4.76-3.04 8.58-6.15.21-.18.02-.54-.24-.59-4.03-.73-5.99 1.52-10.27 1.36-4.26-.16-10.68-2.86-9.95-7.26.33-1.95 4.26-.51 7.1.69.32.13.39 0 .48-.16 1.37-2.7 5.55-3.68 9.76-3.88.6-.03.53-.66.19-.85-3.06-1.64-6.88-.76-7.49-1.59-.06-.09-.05-.5.04-.57 4.06-3.18 6.71-7.41 10.18-10.78.23-.42-.57-.59-.97-.47-.74.24-3.71 1.64-4.22 2.05-1 .79-2.44 2.74-3.14 1.49-.35-2.24.4-6.76-2.15-8.8.11 10.65-9.06 25.47-19.36 12.77-2.45 1.71-4.18 3.4-5.88 5.84"/>
    <path d="m90.6 186.85c-10.3 12.71-19.46-2.12-19.35-12.77-2.55 2.04-1.8 6.57-2.15 8.8-.69 1.27-2.14-.69-3.14-1.48-.51-.41-3.48-1.82-4.22-2.05-.41-.12-1.19.04-.96.47 3.47 3.36 6.12 7.59 10.18 10.77.09.08.11.49.05.57-.62.83-4.45-.05-7.49 1.58-.35.19-.42.82.19.85 4.2.2 8.38 1.18 9.75 3.87.08.17.16.29.47.16 2.85-1.2 6.77-2.63 7.1-.68.74 4.4-5.67 7.1-9.93 7.26-4.55.17-6.22-2.53-10.77-1.26-.09.03-.13.2-.05.26 3.81 2.8 6.08 4.2 8.89 6.38-4.22 3.74-8.42 9.34-11.9 16.49 7.13-3.47 12.73-7.66 16.47-11.88 2.22 2.86 3.05 4.76 6.15 8.57.18.22.53.02.59-.24.72-4.03-1.52-5.99-1.36-10.28.16-4.26 2.86-10.67 7.26-9.94 1.95.33.51 4.25-.68 7.1-.14.32 0 .39.15.47 2.69 1.37 3.69 5.55 3.88 9.76.02.6.66.53.84.19 1.64-3.04.77-6.88 1.6-7.49.07-.06.48-.05.57.05 3.18 4.06 7.41 6.71 10.77 10.19.42.23.59-.57.47-.97-.24-.74-1.65-3.71-2.06-4.23-.78-.99-2.74-2.44-1.48-3.13 2.23-.35 6.76.4 8.8-2.15-10.66.11-25.49-9.05-12.78-19.35-1.71-2.44-3.41-4.17-5.85-5.89"/>
    <path d="m175.64 107.19c1.35-6.13 1.08-5.18 2.53-7.31.95-.73 2.77-3.65 5.66-4.68.03 2.8-.71 3.42-2.54 6.43-1.49 2.19-1.76 2.94-5.65 5.56"/>
    <path d="m156.88 94.74c.86-8.42 1-7.07 1.56-10.25.4-.82 1.06-2.09 2.14-2.44 1.1.08.81 2.97.7 5.63-1.11 2.68-1.28 3.58-4.39 7.06"/>
    <path d="m176.8 120.64c-1.33-.89 1.95-4.29 3.71-5.75 2.45-2.04 5.63-2.97 8.48-4.39 3.39-1.7 3.92-2.2 10.24-4.97.11 2.3-2.95 5.18-5.07 7.22-2.41 2.32-5.24 4.27-8.29 5.65-6.5 2.41-7.14 2.89-9.06 2.24"/>
    <path d="m187.2 131.66c.95-1.14 2.9-.77 4.24-1.41 2.54-1.22 4.6-3.55 7.35-4.14 3.97-.74 8.5-.48 9.74.49-4.36 3.7-5.41 4.23-9.65 5.94-3.24 1.41-6.84 1.65-10.27 1.08-.11-.06-.13-.41-.39-.68-.45-.47-1.08-.92-1.02-1.27"/>
    <path d="m190.72 153.14c4.02.23 5.94 1.43 6.92 1.63 2.54.3 5.19-.32 7.67.12 1.4.94 1.89 1.19 3.67 3.31-4.55.31-4.71-.69-7.08-.88-1.61-.13-2.77.1-4.84-.09-2.32-.7-4.43-1.98-6.46-3.28-.23-.15-.15-.84.12-.8"/>
    <path d="m180.77 162.73c.82-.14 1.33 1.09 2.15 1.27 1.31.3 2.72-.21 4.04.1 2.15.51 4.66 1.01 6.18 2.1 2.42 1.71 4.22 4.41 5.21 7.2.32.9-1.97-.03-2.83-.44-1.78-.85-3.12-2.46-4.92-3.26-1.8-.82-3.97-1.36-5.75-1.51-2.06-.18-3.77-1.99-5.01-3.65-.41-.53.25-1.68.92-1.8"/>
    <path d="m164.45 179.44c2.65 1.93 5.16 4.05 7.5 6.33.5.48.75 1.19.88 1.85.4 2.07.82 3.07.68 6.29-1.33-.04-2.84-2.36-3.95-3.81-2.04-2.66-3.02-5.95-4.48-8.91-.22-.44-.79-.66-.96-1.12-.08-.24.15-.78.34-.64"/>
    <path d="m155 186.06c1.81 2.49 3.89 4.97 4.68 7.94.43 1.62-.57 3.36-1.32 4.87-.16.33-.63-.47-.68-.83-.19-1.3.28-2.67-.04-3.94-.29-1.11-1.26-1.92-1.71-2.97-.56-1.29-1.01-2.62-1.27-4-.06-.36.12-1.37.35-1.07"/>
    <path d="m143.99 182.9c.91 1.67 1.8 3.56 1.66 5.46-.39 5.19-1.87 10.26-3.21 15.3-.14.5-.66.96-1.17 1.07-.36.08-.86-.26-.93-.64-.58-3.39-1.3-6.86-.92-10.28.41-3.79 1.78-7.44 3.26-10.96.16-.4 1.1-.34 1.31.05"/>
    <path d="m114.09 184.46c1.67-1.58 1.83-4.3 4.58-5.17.45 2.47-1.36 5.34-2.48 7.85-1.44 3.2-4.32 5.26-7.75 6.82-.53.24-1.84.63-1.75.05.32-2.11 1.32-4.16 2.62-5.85 1.25-1.59 3.32-2.32 4.78-3.69"/>
    <path d="m102.84 161.57c-3.55.29-6.34 1.39-8.57 3.36-2.64 2.32-5.18 4.76-7.6 7.31-.18.19-.33.65-.09.78.35.2.85.05 1.21-.15 2.9-1.55 5.76-3.17 8.47-5.02 2.32-1.58 4.59-3.27 6.62-5.21.26-.24.32-1.1-.04-1.07"/>
    <path d="m76.93 142.86c1.68-1.43 3.8-2.56 5.98-2.77 2.59-.27 5.09 1.3 7.7 1.41 2.28.09 3.76-.16 6.77-.83-.71 1.24-1.66 2.68-2.97 3.41-1.26.71-2.84.65-4.29.68-1.82.03-3.65-.19-5.45-.48-1.76-.29-3.45-.95-5.21-1.27-.83-.15-3.18.4-2.53-.14"/>
    <path d="m79.02 121.62c3.15.12 6.27.74 9.36 1.42 5.08 1.12 10.21 2.18 15.1 3.99 1.19.44 2.17 1.51 2.77 2.63.21.37-.45.93-.87.92-3.91-.06-7.9.14-11.64-.1-3.01-.18-5.66-2.13-8.33-3.56-2.23-1.19-4.34-2.62-6.28-4.23-.28-.23-.46-1.09-.1-1.07"/>
    <path d="m92.23 104.29c.93-.21 2.02-.04 2.81.49 3.02 1.96 5.74 4.37 8.39 6.82.24.22.33.81.05.97-.53.29-1.22.13-1.81 0-2.11-.46-4.47-.5-6.23-1.76-1.75-1.25-2.71-3.38-3.66-5.3-.19-.39.02-1.12.45-1.22"/>
    <path d="m134.5 82.61c-1.74.78-2.66 2.35-3.21 3.95-.58 1.67-.44 3.59 0 5.31.91 3.63 2.7 6.99 3.98 10.52.3.83 0 2.92.78 2.53 1.16-.56 1.42-2.31 1.42-3.6.01-2.89-1.08-5.69-1.37-8.58-.13-1.39.25-2.35-.16-3.51-.72-2.01-1.12-4.41-1.44-6.62"/>
    <path d="m168.59 149.73c.32-.6 1.02-1.19 1.7-1.12 2.14.24 4.11 1.29 6.14 2 1.06.37 2.16.65 3.13 1.22 2.03 1.21 3.7 2.98 5.79 4.09 3.01 1.6 6.36 2.54 9.45 3.99 2.49 1.17 4.91 2.5 7.3 3.85 1.33.75 2.74 1.43 3.85 2.48.2.19-.21.69-.49.68-1.72-.05-3.39-.62-5.11-.83-1.7-.21-3.44-.09-5.12-.44-3.1-.64-6.14-1.49-9.14-2.48-2.56-.84-5.03-1.92-7.51-2.98-2.42-1.03-4.84-2.1-7.2-3.26-.6-.3-1.16-.68-1.71-1.07-.77-.55-1.72-.96-2.23-1.75-.21-.32.09-.85.39-1.08.33-.25.82-.23 1.22-.15.47.09.86.45 1.31.64 1.84.71 3.65 1.55 5.56 2.04.42.11 1.63-.06 1.26-.29-2.15-1.35-4.66-2.06-6.93-3.26-.47-.25-.88-.63-1.2-1.07-.25-.35-.64-.84-.44-1.22"/>
    <path d="m168.1 129.03c-.3-1.13.35-2.64 1.37-3.21 4.15-2.37 8.83-3.71 13.39-5.16 2.43-.77 5.14-1.21 7.84-1.96 1.88-.53 3.62-1.44 5.84-1.79 3-.48 7.53-.45 10.04 1.43-9.65 1.95-10.18 2.55-14.51 4.66-4.09 1.98-7.59 5.02-11.6 7.15-2.28 1.22-4.66 2.41-7.21 2.87-1.18.22-2.5-.21-3.5-.87-.34-.23.14-.91.48-1.12 2.59-1.58 5.61-2.4 8.09-4.14.35-.25-.57-.97-.97-.83-2.44.85-4.41 2.77-6.87 3.56-.78.24-2.17.2-2.39-.59"/>
    <path d="m170.34 134.97c-.32.34-.1 1.23.35 1.37 3.35 1.01 7-.47 10.32 1.85-4.46.65-6.28.04-9.4.44-.38.05-.91.51-.78.87.26.71.94 1.3 1.65 1.51 2.61.77 5.32 1.27 8.04 1.36 4.64.15 9.33.09 13.92-.63 5.48-.86 10.77-2.52 16.08-4.09.21-.06.19-.57 0-.69-.84-.44-1.78-.73-2.73-.77-4.67-.22-9.36.36-14.03 0-4.26-.33-8.41-1.62-12.66-2.09-2.7-.3-5.43-.42-8.13-.19-.95.07-1.98.38-2.64 1.07"/>
    <path d="m170.73 143.35c.01-.46.58-.82 1.02-.93.87-.22 1.79-.06 2.69 0 7.08.51 14.28.21 21.23 1.71 4.29.93 8.09 3.41 11.98 5.46.22.12-.14.54-.34.68-.32.21-.71.32-1.08.29-1.4-.12-2.77-.67-4.18-.73-5.08-.21-10.16-.15-15.24-.1-2.52.03-5.04.63-7.55.35-2.3-.26-4.48-1.19-6.66-1.95-.84-.29-1.87-.47-2.35-1.22-.24-.39.46-.88.89-1.07.38-.18.84.05 1.26.09 2.14.25 4.28.69 6.43.78.16 0 .19-.42.05-.49-.69-.34-1.49-.41-2.24-.58-1.64-.37-3.36-.41-4.91-1.02-.51-.19-.99-.73-.99-1.27"/>
    <path d="m165.52 157.03c.04-.57.42-1.18.93-1.46.38-.22.91 0 1.31.19 1.07.53 2.06 1.19 2.97 1.95 2.09 1.71 4.2 3.43 5.99 5.45 2.77 3.1 5.1 6.57 7.65 9.84 1.93 2.46 4.09 4.74 5.8 7.35.18.28-.11.75-.4.92-.34.21-.86.24-1.22.06-2.68-1.4-5.26-3-7.75-4.72-2.26-1.58-4.44-3.3-6.47-5.17-2.53-2.31-4.83-4.88-7.21-7.35-1.13-1.19-2.39-2.28-3.36-3.6-.2-.28-.26-.8 0-1.03.41-.34 1.1-.55 1.57-.29 2.11 1.19 3.73 3.15 5.8 4.43.2.12.63-.35.48-.53-.93-1.11-2.22-1.87-3.32-2.83-.68-.6-1.43-1.16-2.03-1.85-.34-.39-.77-.85-.74-1.37"/>
    <path d="m160.02 162.3c0-.57.7-1.07 1.27-1.12.81-.08 1.75.2 2.33.78 3.14 3.13 5.87 6.65 8.62 10.13 2.54 3.22 5.24 6.38 7.21 9.98 1.35 2.47 2.17 5.25 2.62 8.04.08.43-.89.72-1.21.44-2.08-1.86-3.49-4.38-5.46-6.38-2.04-2.09-4.33-3.91-6.51-5.84-2.24-1.97-4.75-3.67-6.72-5.9-1.72-1.93-3.07-4.19-4.29-6.48-.26-.5-.32-1.19-.1-1.7.2-.45 2.26-1.13 2.24-1.95"/>
    <path d="m154.91 165.32c-.55.4-2.36 1.9-2.73 1.95-.46.05-1.13.42-1.08.88.27 1.96 1.49 3.68 1.95 5.6.23.92-.24 1.95.1 2.82 1.59 3.98 3.65 7.76 5.65 11.54 2.51 4.71 5.02 9.44 7.9 13.94.17.26.52-.47.53-.78.1-2.29.03-4.59-.19-6.87-.18-1.84-.53-3.68-1.03-5.46-.92-3.31-2.11-6.53-3.21-9.79-.96-2.82-1.85-5.66-2.98-8.42-.51-1.28-1.18-2.5-1.95-3.65-.41-.63-.9-1.27-1.55-1.66-.41-.24-1.03-.37-1.41-.09"/>
    <path d="m147.74 167.94c.45-.24 1.18-.18 1.52.2.98 1.08 1.72 2.44 2.14 3.85.9 2.99 1.46 6.1 1.75 9.21.42 4.38.62 8.8.35 13.19-.21 3.23-.91 6.43-1.75 9.55-.08.26-.69-.03-.78-.3-1.09-3.12-1.76-6.36-2.64-9.54-1.07-3.9-2.27-7.76-3.22-11.69-.52-2.21-.91-4.47-1.22-6.72-.28-2.08-.68-4.19-.53-6.28.03-.45.58-.86 1.03-.88"/>
    <path d="m137.57 167.94c-.44-.24-1.14.15-1.37.59-.8 1.57-1.16 3.34-1.52 5.07-.25 1.25-.04 2.58-.28 3.84-.15.74-.75 1.35-.84 2.1-.46 4.53-.29 9.11-.78 13.64-.36 3.25-1.36 6.4-1.75 9.64-.04.37.19.77.5.97.21.17.65.17.82-.05 1.54-1.87 3.07-3.81 4.14-5.99 1.11-2.3 1.57-4.87 2.34-7.31.66-2.06 1.45-4.09 1.96-6.19.76-3.13 1.42-6.3 1.84-9.5.21-1.59.24-3.22.06-4.82-.07-.63-.43-1.21-.83-1.7-.19-.22-.58-.42-.84-.3-.59.3-2.76.38-3.45 0"/>
    <path d="m129.87 165.61c.6-.28 1.18.58 1.8.83.78.32 1.55.17 2.2.14.5-.02.94.54 1.11 1.02.16.42-.29.87-.24 1.31.25 1.89-.45 3.43-1.17 4.93-.38.81.13 1.83-.14 2.68-.22.72-.98 1.16-1.27 1.85-.19.47.05 1.04-.15 1.51-.96 2.32-2.19 4.52-3.31 6.78-.18.36-.39.71-.59 1.07-2.26 4.38-5.22 8.44-9.25 11.88-.23.19-.61.16-.88.05-.17-.06-.29-.31-.24-.48 1.07-4.22 2.45-8.35 3.56-12.57.58-2.19.86-4.45 1.46-6.62.36-1.29.95-2.5 1.42-3.75.58-1.53 1.08-3.09 1.75-4.58.54-1.18 1.15-2.33 1.85-3.41.61-.94 1.08-2.15 2.1-2.62"/>
    <path d="m99.09 187.09c2.11-3.29 5.31-5.74 7.84-8.72 2.22-2.6 4.44-5.07 7.5-7.65 1.79-1.5 3.12-3.46 4.77-5.11 1.43-1.42 2.8-2.93 4.44-4.09.27-.19.77-.02.97.24.25.32.37.88.15 1.22-1.46 2.29-.39 2.09 2 .39.27-.19.68-.18.97-.05.34.15.62.48.77.83.14.3.23.7.05.97-1.41 2.14-2.97 4.21-4.72 6.09-2.28 2.46-4.77 4.71-7.31 6.92-1.96 1.7-4.03 3.3-6.18 4.77-1.55 1.07-3.23 1.98-4.92 2.82-1.4.71-2.8 1.48-4.33 1.8-.67.15-2.37.14-2-.44"/>
    <path d="m117.8 155.38c.56-.3 1.34.06 1.85.44.33.25.59.88.34 1.21-1.68 2.32 1.04 1.06 1.65 1.02.39-.02.85.27.97.63.19.56.12 1.23-.14 1.76-.41.8-1.12 1.42-1.76 2.04-1.74 1.69-3.56 3.31-5.4 4.88-2.49 2.09-4.85 4.36-7.6 6.09-2.62 1.65-5.46 3.03-8.43 3.94-2.4.74-4.95.84-7.44.97-.21 0-.42-.46-.25-.59 3.14-2.21 6.77-3.75 9.79-6.13 2.26-1.78 3.93-4.17 5.9-6.28 1.79-1.94 3.44-4.02 5.35-5.84 1.6-1.52 3.21-3.11 5.17-4.14"/>
    <path d="m82.67 164.68c1.94-1.77 4.62-2.5 6.83-3.95 3.33-2.19 6.16-5.18 9.73-6.97 4.52-2.26 9.4-3.77 14.28-5.06.91-.24 1.97.04 2.78.53.3.19.06.77-.15 1.07-.4.6 1.85 1.75 2.2 2.49.31.69-.46 1.62-1.13 2-2.52 1.43-5.28 2.44-8.08 3.21-1.33.37-3.9.11-5.75.7-3.97 1.28-7.1 3.22-11.55 4.85-2.61.95-5.23 2-7.99 2.34-.56.06-1.59-.83-1.17-1.22"/>
    <path d="m80.38 151.19c2.43-1.47 5.02-2.66 7.65-3.7 3.2-1.26 6.52-2.23 9.83-3.17 3.62-1.01 7.27-1.96 10.97-2.68 1.16-.23 2.37-.09 3.55-.15.62-.03 1.25-.27 1.86-.14.54.11 1.33.28 1.46.83.12.54-.43 1.15-.93 1.42-1.39.71.91 1.63 1.32 2.04.26.27.09.87-.2 1.12-.72.66-1.64 1.11-2.58 1.42-1.97.63-4.06.88-6.08 1.36-3.71.88-7.36 2.03-11.11 2.68-2.43.43-4.92.47-7.4.54-2.58.07-5.17.03-7.74-.15-.25-.02-.54-.2-.63-.43-.13-.3-.23-.81.04-.98"/>
    <path d="m80.48 133.9c-.2-1.11 1.97-1.17 3.07-1.37 3.3-.6 6.65-.91 9.99-1.02 2.84-.09 5.69.23 8.53.44 3.07.23 6.16.36 9.2.87 1.28.22 2.59.57 3.7 1.26.51.33.91 1.02.83 1.61-.06.49-.68.88-1.18.92-1.96.18-1.73.39.99 1.66.6.28-.52 1.4-1.13 1.66-1.14.49-2.46.44-3.7.39-3.24-.13-6.49-.39-9.69-.93-3.34-.55-6.59-1.54-9.89-2.34-2.38-.57-4.79-1.1-7.15-1.8-1.22-.36-3.34-.12-3.56-1.36"/>
    <path d="m88.91 111.54c-.2-.3.4-.91.73-.78 3.06 1.19 5.92 2.85 8.77 4.48 2 1.14 3.78 2.64 5.75 3.84 2.44 1.5 5 2.76 7.45 4.24 2.22 1.34 4.56 2.56 6.53 4.23.32.28.28.95 0 1.27-.32.36-.95.5-1.41.34-2.19-.77-1.29.14.77 1.95.41.36-.44 1.08-.92 1.32-.63.3-1.44.38-2.1.14-2.1-.78-4.06-1.9-5.94-3.12-2.48-1.61-4.83-3.44-7.1-5.31-2.58-2.11-5.12-4.27-7.46-6.62-1.84-1.85-3.66-3.79-5.06-5.99"/>
    <path d="m96.95 97.13c2.53 1.35 4.84 3.1 7.1 4.87 2.1 1.66 4.04 3.52 5.99 5.36 2.91 2.74 5.85 5.46 8.58 8.38 1.35 1.45 2.68 2.98 3.6 4.72.21.4-.08 1.01-.44 1.27-.38.28-2.97-.39-1.51 1.7.4.58.19 1.58-.28 2.1-.4.41-1.2.3-1.71.05-.97-.46-1.75-1.28-2.49-2.04-3.06-3.17-6.15-6.32-8.92-9.75-2.87-3.55-5.46-7.31-7.94-11.15-.89-1.39-1.53-2.93-2.09-4.48-.12-.32-.2-1.19.1-1.02"/>
    <path d="m106.79 88.31c1.39.98 2.89 1.97 3.8 3.4 3.08 4.87 5.27 10.27 8.08 15.3.15.27.63.81.78.54.21-.39-.16-.9-.35-1.31-1.34-2.84-3.01-5.53-4.25-8.43-1.1-2.62-1.9-5.36-2.72-8.08-.13-.41-.47-1.05-.1-1.27.51-.3 1.37-.16 1.75.3 2.07 2.47 3.58 5.34 5.26 8.08 1.72 2.82 3.6 5.57 4.97 8.58 1.62 3.56 3.04 7.25 3.94 11.06.11.48-.65.83-1.13.97-.33.1-.74-.08-.98-.34-1.46-1.74-2.41-3.9-3.98-5.55-.22-.23-.7.51-.54.78 1.36 2.32 3.68 4.03 4.78 6.48.25.57-.68 1.16-1.27 1.37-.55.19-1.35.14-1.75-.29-1.81-1.88-2.99-4.27-4.59-6.33-.74-.96-1.74-1.69-2.43-2.68-1.43-2.05-2.75-4.2-3.9-6.43-1.46-2.86-2.65-5.85-3.89-8.81-.78-1.86-1.55-3.73-2.14-5.65-.14-.45-.22-.97-.05-1.42.09-.23.49-.38.68-.24"/>
    <path d="m121.15 81.93c-.2 3.78.41 7.59 1.16 11.3 1.25 6.05 2.77 12.09 4.83 17.92.66 1.9 1.6 3.92 3.26 5.06.65.45 1.8-.77 1.8-1.56 0-1.77-1.34-3.29-1.8-5.01-.52-1.94-1.93-4.26-1.13-5.94 1.68 1.77 1.43 3.88 2.19 5.8.61 1.53 1.05 3.15 1.95 4.53.21.32.78.29 1.12.15.51-.21 1.27-.57 1.22-1.12-.2-2.52-1.13-4.94-1.89-7.35-.89-2.77-1.95-5.48-3.02-8.19-1-2.49-1.99-5-3.21-7.4-1.43-2.76-2.8-5.59-4.73-8.03-.37-.46-1.73-.73-1.75-.14"/>
    <path d="m137.41 91.69c.75-4.61.8-10.83 3.61-13.55 2.18 3.5 2.08 8.46 2.63 12.77.33 2.59.16 5.21 0 7.8-.26 4.24-.6 8.48-1.27 12.67-.06.42-.46.86-.88.88-.5.02-1.14-.3-1.26-.78-1.15-4.35-1.81-8.81-2.44-13.26-.31-2.16-.74-4.39-.4-6.54"/>
    <path d="m148.43 100.44c.04-.21.63-.03.63.19 0 2.54-.37 5.07-.63 7.6-.08.67-.52 1.32-.4 1.99.21 1.08.27 3.17 1.37 3.02 1.29-.18 1.47-2.21 1.85-3.45.69-2.26 1.05-4.63 1.37-6.97.36-2.74.61-5.51.68-8.28.1-3.83.08-7.67-.19-11.49-.15-2.07-.34-4.19-1.08-6.14-.14-.37-1.04-.36-1.22 0-1.26 2.67-1.97 5.59-2.78 8.43-.66 2.34-1.15 4.72-1.61 7.11-.61 3.17-1.17 6.35-1.61 9.54-.18 1.32-.13 2.67-.24 3.99-.17 1.97-.71 3.93-.59 5.9.03.52.51 1.27 1.03 1.17.79-.16 1.5-.93 1.7-1.71.96-3.56.92-7.32 1.71-10.91"/>
    <path d="m169.13 80.43c-2.17 2.68-2.67 4.23-4.05 6.33-1.55 2.37-3.22 4.66-4.72 7.06-2 3.2-4.18 6.33-5.8 9.74-1.13 2.37-1.78 4.94-2.38 7.51-.23.98-.23 2.02-.1 3.02.03.23.36.58.54.44.82-.63 1.53-1.46 2-2.39.53-1.07.45-2.36.92-3.46.54-1.24.71-3.31 2.05-3.51 1.08-.16-.15 2.21-.43 3.27-.55 2.08-1.72 4-2.05 6.13-.08.48.46 1 .93 1.12.42.11.95-.21 1.17-.59 1.42-2.42 2.45-5.06 3.65-7.6 1.57-3.34 3.33-6.6 4.67-10.04 1.11-2.81 2.06-5.71 2.68-8.67.59-2.75 1.53-5.67.92-8.37"/>
    <path d="m158.03 117.24c-.01.22.23.43.43.49.52.12 1.28.42 1.61 0 2.21-2.83 3.53-6.27 5.59-9.21.17-.24.42.56.3.83-1.35 3.01-3.29 5.73-4.58 8.77-.17.4 0 .94.29 1.27.23.26.75.46 1.03.24 1.08-.91 1.82-2.18 2.68-3.32 1.95-2.61 4.14-5.09 5.75-7.93 2.04-3.63 3.66-7.51 5.16-11.4 1.37-3.57 2.72-7.2 3.45-10.96.09-.43-.99-.57-1.26-.25-2.79 3.33-4.91 7.18-7.5 10.67s-5.65 6.64-8.04 10.27c-1.75 2.66-2.98 5.63-4.34 8.52-.28.63-.53 1.31-.57 2"/>
    <path d="m193.14 99.76c.2-.22-.39-.57-.68-.54-1.45.18-2.97.39-4.24 1.13-3.15 1.83-5.88 4.32-8.81 6.47-3.4 2.5-7.01 4.73-10.23 7.46-1.88 1.6-3.47 3.52-5.02 5.45-.37.47-.74 1.06-.68 1.66.06.49.5.98.97 1.13.63.18 1.46.18 1.95-.25 1.95-1.69 3.24-4.02 5.06-5.84.28-.28.76-.49 1.13-.34.24.1.06.57-.1.77-1.74 2.17-3.78 4.09-5.55 6.24-.38.45-.89.96-.88 1.55 0 .45.48.96.93.97.94.02 1.93-.31 2.67-.88 2.21-1.65 4.2-3.59 6.05-5.65 1.48-1.66 2.48-3.72 3.89-5.45 1.99-2.46 4.17-4.76 6.28-7.11 1.17-1.3 2.28-2.66 3.56-3.85 1.14-1.07 2.66-1.74 3.7-2.92"/>
    <path d="m144.6 119.14c.5 0 .91-.3.91-.66s-.42-.67-.91-.67-.92.3-.92.67.41.66.92.66"/>
    <path d="m147.56 119.08c.5 0 .91-.4.91-.89s-.41-.87-.91-.87-.91.4-.91.87.41.89.91.89"/>
    <path d="m146.14 120.64c.4 0 .73-.31.73-.7s-.33-.71-.73-.71-.73.32-.73.71.33.7.73.7"/>
    <path d="m144.49 122.24c.46 0 .84-.34.84-.75s-.38-.75-.84-.75-.83.34-.83.75.37.75.83.75"/>
    <path d="m144.36 125.69c.51 0 .92-.35.92-.78s-.41-.78-.92-.78-.94.35-.94.78.42.78.94.78"/>
    <path d="m142.87 126.96c.44 0 .78-.25.78-.55s-.34-.56-.78-.56-.78.25-.78.56.35.55.78.55"/>
    <path d="m141.18 122.36c.45 0 .82-.32.82-.72s-.37-.71-.82-.71-.81.32-.81.71.37.72.81.72"/>
    <path d="m142.82 117.25c.17 0 .32-.17.32-.38s-.15-.37-.32-.37c-.18 0-.33.17-.33.37s.15.38.33.38"/>
    <path d="m145.69 117.52c.15 0 .28-.17.28-.37s-.12-.38-.28-.38-.28.17-.28.38.13.37.28.37"/>
    <path d="m141.35 128.52c.5 0 .91-.33.91-.73s-.4-.74-.91-.74-.91.33-.91.74.42.73.91.73"/>
    <path d="m136.5 123.86c.42 0 .76-.28.76-.63s-.34-.64-.76-.64-.74.29-.74.64.33.63.74.63"/>
    <path d="m135.07 125.65c.42 0 .74-.31.74-.68s-.33-.68-.74-.68-.75.3-.75.68.33.68.75.68"/>
    <path d="m136.57 127.02c.41 0 .75-.28.75-.61s-.34-.62-.75-.62-.75.28-.75.62.34.61.75.61"/>
    <path d="m138.16 128.65c.39 0 .72-.29.72-.64s-.33-.63-.72-.63-.71.29-.71.63.31.64.71.64"/>
    <path d="m131.92 125.65c.47 0 .85-.27.85-.6s-.38-.6-.85-.6-.84.27-.84.6.38.6.84.6"/>
    <path d="m133.54 127.02c.39 0 .71-.25.71-.55s-.32-.55-.71-.55-.72.24-.72.55.32.55.72.55"/>
    <path d="m135.01 128.49c.36 0 .65-.23.65-.51s-.29-.51-.65-.51-.65.23-.65.51.29.51.65.51"/>
    <path d="m136.69 130.21c.33 0 .6-.2.6-.45s-.27-.46-.6-.46-.6.2-.6.46.26.45.6.45"/>
    <path d="m132.06 128.65c.37 0 .66-.28.66-.6s-.29-.6-.66-.6-.66.27-.66.6.29.6.66.6"/>
    <path d="m133.61 130.31c.44 0 .81-.35.81-.78s-.37-.78-.81-.78-.82.35-.82.78.38.78.82.78"/>
    <path d="m135.21 131.81c.57 0 1.03-.34 1.03-.76s-.46-.77-1.03-.77-1.02.35-1.02.77.46.76 1.02.76"/>
    <path d="m132.06 134.97c.48 0 .86-.27.86-.6s-.39-.6-.86-.6-.86.27-.86.6.38.6.86.6"/>
    <path d="m135.06 119.47c.51 0 .92-.36.92-.82s-.41-.81-.92-.81-.93.36-.93.81.42.82.93.82"/>
    <path d="m131.01 121.46c-.12.17-.12.42-.04.61.09.21.28.41.49.49s.49.07.68-.06c.56-.38.81-1.25 1.47-1.4.33-.08.49.67.32.97-.29.57-1.21.66-1.49 1.24-.15.3.17.69.39.94.15.18.47.41.65.26 1.15-.92 1.95-2.2 3.02-3.19.17-.16.42-.23.65-.19.16.02.35.18.33.32-.02.18-.42.2-.39.39.01.21.35.25.48.42.07.09-.03.29.07.32.29.1.67.19.91 0 1.13-.91 1.85-2.3 3.02-3.16.24-.18.62.13.81.36.16.18-.07.54.1.69.2.15.6.2.75 0 .19-.28.11-.72-.06-1.01-.1-.17-.41-.02-.59-.09-.11-.06-.29-.14-.25-.27.05-.21.51-.25.45-.46-.13-.39-.52-.71-.9-.84-.47-.16-1.01-.06-1.4.23-1.04.76-1.65 1.84-2.6 2.71-.13.11-.39-.1-.43-.26-.04-.18.36-.34.25-.49-.24-.37-.67-.63-1.1-.75-.27-.07-.63.02-.81.23-.19.19.09.63-.13.78-.35.24-.84.3-1.24.17-.21-.07-.02-.46-.13-.65-.09-.17-.24-.34-.42-.39-.34-.1-.69-.05-.98.16-.74.54-1.36 1.15-1.88 1.92"/>
    <path d="m137.22 117.94c.72-.51 1.45-.97 2.05-1.34.29-.17.76-.18 1.01.04.2.18.23.69 0 .81-.67.38-1.26.85-1.44 1.67-.03.2-.21.42-.41.45-.36.06-.78 0-1.07-.23-.22-.16-.24-.49-.26-.75-.02-.23-.06-.53.13-.66"/>
    <path d="m137.7 125.36c-.13-.28-.23-.68-.06-.94.43-.62 1.07-1.08 1.73-1.44.28-.16.67-.19.97-.06.21.08.4.39.3.59-.24.47-1.19.56-1.14 1.08.07.68 1.14.87 1.4 1.5.13.32-.06.81-.36.98-.45.24-.84.16-1.27-.1-.62-.37-1.23-.94-1.57-1.6"/>
    <path d="m146.65 121.33c.74-.78 1.55-1.67 2.24-2.25.38-.32 1.46.51 1.17.91-.46.64-1.28 1.35-1.78 2.15-.2.31-.78.17-1.11 0-.29-.15-.75-.58-.52-.81"/>
    <path d="m140.44 124.58c.69-.79 1.53-1.6 2.11-2.47.19-.28.74.02.98.26.3.3.76.89.45 1.18-.65.61-1.47 1.29-2.14 2.08-.2.23-.64.08-.87-.09-.29-.22-.76-.67-.52-.95"/>
    <path d="m132.96 133.21c-.17-.31 0-.81.29-1.01.26-.18.64 0 .95.12.41.17.7.84 1.13.72.48-.13.4-1 .84-1.24.31-.17.74 0 1.01.23.24.22.45.65.32.95-.34.79-.96 1.47-1.62 2.02-.25.2-.67.3-.94.12-.38-.24-.36-.85-.69-1.17-.36-.34-1.04-.31-1.29-.74"/>
    <path d="m152.66 123.41c.45 0 .81-.3.81-.68s-.36-.68-.81-.68-.81.3-.81.68.36.68.81.68"/>
    <path d="m167.17 140.43c.52 0 .94-.3.94-.66s-.42-.67-.94-.67-.94.3-.94.67.42.66.94.66"/>
    <path d="m151.19 143.98c.44 0 .8-.32.8-.73s-.36-.73-.8-.73-.8.33-.8.73.36.73.8.73"/>
    <path d="m149.62 145.48c.41 0 .73-.25.73-.56s-.32-.55-.73-.55-.73.25-.73.55.32.56.73.56"/>
    <path d="m151.35 147.11c.6 0 1.09-.35 1.09-.76s-.48-.77-1.09-.77-1.1.34-1.1.77.5.76 1.1.76"/>
    <path d="m149.9 148.86c.47 0 .85-.4.85-.9s-.38-.89-.85-.89-.84.4-.84.89.38.9.84.9"/>
    <path d="m148.37 147.33c.41 0 .75-.33.75-.73s-.34-.73-.75-.73-.75.32-.75.73.33.73.75.73"/>
    <path d="m146.77 148.84c.45 0 .82-.34.82-.74s-.37-.73-.82-.73-.81.33-.81.73.36.74.81.74"/>
    <path d="m151.51 150.3c.52 0 .96-.36.96-.8s-.44-.8-.96-.8-.96.36-.96.8.44.8.96.8"/>
    <path d="m140.49 152.22c.47 0 .86-.27.86-.6s-.39-.6-.86-.6-.87.27-.87.6.39.6.87.6"/>
    <path d="m164.32 135.22c.21-.7.93-1.29 1.64-1.43.41-.08.71.53.83.93.09.33-.47.71-.26.98.27.37 1.01.11 1.32.46.22.25.14.74-.07.97-.29.3-.84.53-1.18.31-.44-.28-.23-1.05-.59-1.42-.18-.18-.52.16-.76.05-.37-.18-1.06-.44-.94-.84"/>
    <path d="m167.75 142c-.27-.27-.69-.3-.99-.53-.36-.28-.55-1.16-.97-.97-1.44.62-2.31 2.15-3.64 2.98-.18.12-.66-.22-.52-.39 1.4-1.64 3.32-2.8 4.68-4.47.24-.29.15-.86-.13-1.11-.27-.25-.81-.22-1.1 0-1.53 1.15-2.66 2.78-4.15 3.96-.16.12-.57-.17-.47-.32.79-1.09 1.99-1.84 2.8-2.92.12-.17-.33-.44-.2-.59.17-.19.54.04.78-.07.39-.17.96-.3 1.04-.71.1-.46-.33-.9-.65-1.24-.12-.12-.37-.08-.53 0-.32.17-.71.37-.84.71-.11.3.34.61.25.91-.04.17-.36.15-.51.06-.32-.18-.9-.43-.78-.78.18-.54 1.13-.52 1.37-1.04.17-.36-.15-.81-.39-1.11-.72-.87-1.76-1.45-2.47-2.34-.11-.15.03-.63.19-.52 1.24.84 1.96 2.48 3.39 2.92.66.2 1-.96 1.56-1.37.34-.24.98-.18 1.1-.57.15-.48-.13-1.06-.46-1.44-.19-.23-.75.13-.91-.13-.22-.38.22-.96 0-1.36-.15-.29-.59-.38-.9-.33-.59.09-1.2.3-1.62.71-.23.23.25.91-.07.97-.39.08-1.11-.44-.91-.78.6-1.04 1.94-1.43 2.73-2.34.15-.18.1-.54-.06-.71-2.67-2.73-5.44-5.37-8.32-7.86-.19-.17-.55-.13-.78 0-.74.43-1.48 1.1-1.98 1.8-.19.27-.17.6.1.8.33.24.86.17 1.23 0 .29-.12.22-.71.52-.78.31-.07 1.03.2.84.46-1.06 1.44-2.31 2.88-3.9 3.71-.49.24.05-1.12-.14-1.63-.08-.22-.35-.31-.58-.39-.25-.08-.93.15-.78-.06.85-1.22 2.21-2.02 3.06-3.25.18-.28 0-.7-.2-.97-.18-.28-.51-.49-.85-.52-.25-.02-.44.53-.65.39-.25-.17.14-.76-.13-.91-.45-.26-1.19-.42-1.56-.06-.32.32-.05.97.2 1.36.11.19.52-.17.65 0 .16.21.07.54 0 .78-.04.17-.18.33-.33.39-.24.1-.41.22-.6.39-.69.65-1.24 1.08-1.75 1.98-.33.57.85.92 1.12 1.53.07.17-.17.55-.33.45-1.14-.66-1.89-1.94-3.12-2.47-.33-.14-.88.43-.77.78.16.6 1.41.68 1.36 1.3-.05.69-1.17.79-1.56 1.36-.14.22-.04.59.14.78.54.63 1.43.9 1.94 1.57.13.16-.27.48-.46.39-.74-.39-1.12-1.44-1.95-1.62-.48-.12-1.22.42-1.17.91.06.59 1.07.64 1.37 1.17.14.26.02.94-.26.84-.49-.16-.47-.97-.91-1.24-.37-.22-.91-.25-1.29-.06-.44.22-.47.88-.86 1.17-.19.14-.52.14-.71 0-.35-.27-.37-.84-.71-1.11-.19-.14-.52-.14-.72 0-.32.23-.85.64-.65.98.71 1.19 2.08 1.86 2.99 2.93.08.09-.15.31-.26.26-1.13-.66-2.02-1.71-3.19-2.28-.38-.18-1.07-.25-1.23.13-.2.48.27 1.02.59 1.43.24.32.91.26 1.03.65.1.34-.33.66-.59.9-.94.89-1.76 2.06-2.98 2.47-.5.17-.76-.81-1.23-1.04-.29-.13-.64-.12-.92 0-.5.22-.64 1.05-1.18 1.09-.33.02-.25-.78-.54-.93-.45-.25-1.84.15-1.6-.29.79-1.43 2.58-2.05 3.51-3.38.19-.29-.19-.84-.52-.91-.54-.1-1.11.21-1.56.52-.15.1.22.42.08.52-.22.14-.72.22-.86 0-.2-.31-.1-.77.07-1.1.12-.26.87-.31.84-.6-.07-.84-1.06-.93-1.11-1.54-.07-.71 1.42-1.13 1.08-1.75-.68-1.27-2.02-1.93-2.87-3.21-.11-.17.24-.39.42-.3.56.33.57 1.1 1.22 1.09.26 0 .65-.25.88-.49.31-.32-.08-.74-.35-1.1-.19-.27-.67-.18-.78-.49-.12-.33.18-.73.45-.98.18-.15.59.15.71-.06.2-.32.29-.88 0-1.1-.36-.28-1.01-.23-1.37.06-2.82 2.35-5.44 4.94-8.12 7.54-.32.31-.12.89-.27 1.3-.09.3-.55.78-.6 1.09-.09.6.42 1.01.13 1.54-.51.95-1.85 2-2.14 3.15-.1.42.58.46.67.9.08.43.11.65 0 1.07-.1.34-.57.5-.65.84-.1.41-.12.9.13 1.25.5.7 1.41 1.02 1.96 1.68.16.2.15.54.06.78-.12.3-.52.42-.64.72-.11.28-.23.69 0 .91 4.14 4.05 8.24 8.2 12.86 11.7.42.31-.17-.83.72-1.17.64-.24.74.13 1.1.52.5.54 1.02 1.08 1.63 1.49.27.19.65.37.97.26.47-.15.68-.72 1.11-.97.24-.14.57-.31.84-.2.55.25.68 1.01 1.27 1.06.45.04 1.02-.42.85-.83-.42-.97-1.37-1.55-2.22-2.16-.23-.16-.47-.18-.73-.08-.46.19-.74.79-1.23.85-.29.03-.65-.31-.46-.54.8-.97 1.82-1.77 2.79-2.71.28-.27.74-.39 1.1-.33.38.06.56.53.91.65.29.1.67.18.91 0 .22-.15.33-.54.2-.78-.21-.37-.91-.32-1.04-.72-.09-.28.29-.65.59-.65.32 0 .42.51.71.65.19.1.48.13.65 0 1.4-1.07 2.81-2.17 3.96-3.51.18-.21-.06-.59-.26-.78-.24-.22-.64-.49-.91-.32-1.06.69-1.66 1.97-2.74 2.66-.21.15-.8-.24-.65-.45.77-1.11 1.88-1.95 2.92-2.8.19-.15.48-.18.71-.13.44.11.8.46 1.24.59.19.06.43.06.59-.06.79-.61 1.35-1.49 2.15-2.08.25-.19.65-.36.91-.2.98.63 1.77 1.53 2.53 2.4.21.25.38.59.32.91-.04.26-.35.4-.57.52-.09.04-.26.03-.26-.06 0-.34.37-.66.26-.98-.12-.29-.47-.49-.78-.51-.39-.02-.9.06-1.11.39-.22.35-.17.9.07 1.24.23.32.78.18 1.1.39.09.06.06.24 0 .33-.37.55-1.07.92-1.24 1.55-.09.37.27.77.58.98.27.18.72-.12.98.06.32.22.22.88.58.98.62.16 1.71-.94 1.89-.33.2.72-.78 1.44-1.5 1.69-.35.12-.07-.85-.39-1.04-.38-.24-.99-.33-1.36-.06-1.04.74-1.51 2.12-2.54 2.86-.25.17-.92-.19-.78-.46.33-.63 1.32-.56 1.59-1.21.18-.43-.28-.88-.61-1.2-.21-.21-.61-.08-.84-.26-.31-.24-.39-.72-.7-.95-.26-.18-.56-.42-.82-.23-1.04.79-1.65 1.97-2.64 2.81-.18.15-.74 0-.65-.19.33-.73 1.43-1.03 1.56-1.82.07-.42-.78-.69-1.18-.52-.96.4-1.72 1.21-2.39 2.01-.18.2-.1.58.06.78.29.37.9.4 1.17.78.12.16-.08.6-.26.52-.62-.26-.99-1.08-1.66-1.2-.43-.08-.78.33-.95.75-.14.36.11.71.38 1.01 1 1.03 2.03 1.91 3.25 2.67.38.24.73.47 1.14.31.74-.28 1.4-.85 1.92-1.44.15-.18 0-.41.14-.6.24-.3.61-.67.98-.58.28.06-.12.71.13.84.48.24 1.1.24 1.62.06.51-.18.7-1.07 1.23-1.04.51.03.49.92.92 1.17.29.18.75.2 1.04 0 .96-.67 1.61-1.73 2.54-2.47.16-.13.49-.21.65-.06.19.18-.03.58.13.77.2.24.6.59.84.39 2.31-1.9 3.9-4.63 6.37-6.31.48-.32.79 1.01 1.37 1.04.41.03.89-.49.84-.91-.05-.44-.85-.44-1.04-.84-.15-.31-.21-.99.13-1.04.5-.07.74.79 1.22.84.3.03.62-.36.59-.65-.05-.51-.91-.81-.78-1.31.19-.69 1.28-.83 1.57-1.49.14-.34-.26-.72-.52-.97m-3.99-10.61c.32 0 .59.17.59.37s-.27.37-.59.37-.59-.16-.59-.37.27-.37.59-.37m-37.41 14.2c-.3 0-.54-.12-.54-.26s.24-.26.54-.26.54.12.54.26-.25.26-.54.26m.87-10.81c-.15.27-.55.32-.75.55-.09.1.06.35-.06.39-.34.11-.73.08-1.08-.03-.25-.09-.34-.44-.59-.52s-.56-.07-.77.06c-.14.08.05.36-.07.46-.32.26-.71.43-1.11.52-.1.02-.19-.12-.22-.23-.04-.12 0-.26.03-.39.08-.28.37-.53.32-.81-.02-.18-.3-.21-.48-.23-.31-.04-.65-.05-.94.06-.21.08-.22.41-.43.49-.09.04-.25-.18-.2-.26.54-.66 1.04-1.47 1.83-1.76.42-.16.85.36 1.2.66.35.28.51.76.87 1.04.24.19.56.27.86.36.12.04.26.06.38 0 .35-.19.56-.6.95-.72.15-.04.33.23.27.36m-.09-6.63c0-.22.13-.41.28-.41s.27.18.27.41-.13.41-.27.41-.28-.18-.28-.41m.68 16.3c-.14 0-.24-.12-.24-.27s.1-.28.24-.28c.13 0 .24.12.24.28s-.12.27-.24.27m-.02-13.19c-.19 0-.35-.21-.35-.45s.16-.46.35-.46c.2 0 .36.2.36.46s-.16.45-.36.45m.26-1.43c0-.25.28-.46.63-.46s.64.2.64.46-.28.45-.64.45-.63-.21-.63-.45m1.23 5.96c-.18 0-.32-.13-.32-.29s.14-.3.32-.3.32.13.32.3-.14.29-.32.29m1.01 1.64c0-.18.12-.34.26-.34s.27.16.27.34-.12.34-.27.34-.26-.16-.26-.34m.44 3.22c-.08 0-.15-.13-.15-.28s.07-.28.15-.28.14.12.14.28-.06.28-.14.28m1.09-1.95c0-.19.14-.34.32-.34s.32.15.32.34-.14.34-.32.34-.32-.15-.32-.34m.58 6.33c.2 0 .35.12.35.26s-.15.26-.35.26-.36-.12-.36-.26.16-.26.36-.26m.12 3.33c-.23 0-.41-.11-.41-.23s.18-.23.41-.23.4.1.4.23-.18.23-.4.23m.53-9.84c-.14.08-.38-.17-.35-.32.03-.22.37-.27.49-.46.06-.08-.09-.23 0-.29.2-.16.46-.26.71-.24.22.03.6.19.52.39-.08.21-.49-.09-.68.03-.31.21-.35.71-.68.88m1.29 5.23c0 .16-.19.29-.44.29s-.44-.13-.44-.29.2-.3.44-.3.44.14.44.3m.1 3.02c-.19.24-.63.1-.91.26-.15.09-.3.59-.29.42.02-.37.1-.78.32-1.07.09-.12.29 0 .42.06.17.08.57.18.45.33m8.88-15.99c.14 0 .27.07.27.17 0 .08-.13.16-.27.16-.15 0-.28-.08-.28-.16 0-.1.13-.17.28-.17m-.15 6.32c.16 0 .29.1.29.23s-.13.23-.29.23-.29-.1-.29-.23.13-.23.29-.23m-1.17-1.66c.09 0 .16.08.16.18s-.07.18-.16.18-.16-.08-.16-.18.08-.18.16-.18m-2.13-1.79c.13 0 .24.13.24.3s-.11.29-.24.29c-.14 0-.25-.12-.25-.29s.11-.3.25-.3m.27 3.67c0 .13-.11.24-.23.24-.13 0-.24-.11-.24-.24s.1-.24.24-.24c.12 0 .23.11.23.24m-3.41.07c.47-.77.94-1.6 1.7-2.08.22-.15.44.45.38.72-.06.25-.46.24-.65.42-.43.4-.71.98-1.2 1.3-.11.08-.3-.23-.23-.36m.59 2.48c.11-.12 0-.36.12-.49.27-.28.57-.61.95-.65.2-.02.39.28.39.49s-.23.36-.39.52c-.27.25-.66.38-.87.68-.1.13-.09.36.02.49.32.34.85.42 1.14.78.15.19.11.48.06.72-.02.12-.14.23-.26.26-.16.04-.37.02-.49-.1-.1-.11-.03-.3-.03-.46-.02-.16.05-.36-.04-.48-.12-.18-.35-.29-.55-.33-.27-.06-.61-.13-.85.03-.31.22-.4.65-.59.97-.04.1 0 .26-.1.3-.12.05-.29-.03-.39-.13-.09-.1-.11-.25-.09-.39.02-.2.11-.41.22-.59.26-.37.54-.73.88-1.04.26-.24.61-.34.85-.59m-1.89-1.33c.33 0 .6.18.6.4s-.27.39-.6.39-.6-.18-.6-.39.27-.4.6-.4m-.63 6.48c.09-.28.63.04.87-.13.15-.11 0-.4.09-.55.18-.28.45-.49.7-.71.32-.3.59-.73 1-.88.19-.07.53.12.53.33-.01.25-.43.3-.56.53-.07.12.1.31 0 .42-.27.27-.72.3-.97.59-.22.24-.14.66-.36.88-.15.15-.44.17-.65.1-.26-.1-.74-.28-.64-.55m.64 3.46c0-.18.14-.33.32-.33.19 0 .33.15.33.33s-.15.32-.33.32-.32-.14-.32-.32m3.58.06c-.15.31-.58.37-.82.62-.08.09 0 .28-.09.36-.12.1-.36-.03-.45.1-.23.32-.18.81-.42 1.11-.09.11-.34-.17-.43-.06-.34.36-.39.94-.75 1.26-.11.1-.3-.15-.32-.29-.03-.17.11-.31.19-.46.2-.39.35-.81.65-1.13.66-.76 1.32-1.56 2.18-2.08.18-.12.35.39.26.59m1.3-1.65c-.15 0-.29-.14-.29-.31 0-.18.14-.3.29-.3s.29.13.29.3-.13.31-.29.31m.52-3.29c-.71.92-1.63 1.66-2.53 2.38-.12.1-.35-.14-.46-.03-.13.12.03.36-.06.52-.14.23-.33.47-.59.55-.14.05-.24-.16-.3-.29-.03-.12-.05-.29.04-.36.13-.09.37.09.46-.03.16-.18.02-.54.19-.72.13-.13.45.12.56-.03.16-.19-.04-.5.06-.72.13-.25.33-.5.59-.62.24-.1.58.16.78 0 .21-.17.08-.57.26-.78.13-.15.36-.22.55-.19.19.02.58.18.46.33m.12-3.1c-.16.15-.66.05-.62-.17.12-.64.53-1.24.98-1.72.27-.29.72-.58 1.11-.48.24.06.08.54-.06.75-.13.18-.48.03-.62.19-.36.42-.38 1.07-.78 1.43m1.24 4.79c-.19 0-.34-.16-.34-.36s.16-.36.34-.36.35.17.35.36-.16.36-.35.36m-.23-3.39c-.31 0-.56-.14-.56-.32s.25-.33.56-.33.58.14.58.33-.26.32-.58.32m1.49 1.96c-.2 0-.37-.21-.37-.46s.17-.45.37-.45.37.21.37.45-.17.46-.37.46m.54-3.95c-.22.45-.59.84-1 1.11-.16.1-.63.01-.52-.13.38-.5.86-.96 1.23-1.34.11-.1.36.23.29.36m.88-8.13c.2 0 .36.14.36.31s-.16.31-.36.31-.35-.14-.35-.31.16-.31.35-.31m-.52 7.29c0-.25.15-.46.33-.46.17 0 .33.21.33.46s-.16.46-.33.46c-.18 0-.33-.21-.33-.46m.64 3.09c-.21 0-.37-.16-.37-.36s.17-.36.37-.36.37.16.37.36-.17.36-.37.36m1.03-11.07c-.22 0-.4-.12-.4-.27 0-.16.18-.28.4-.28.23 0 .41.12.41.28 0 .15-.18.27-.41.27m2.04-5.47c.14 0 .26.14.26.31s-.11.31-.26.31-.26-.14-.26-.31.12-.31.26-.31m-.85 3.42c0-.27.2-.48.44-.48s.44.22.44.48-.2.49-.44.49-.44-.23-.44-.49m.88 6.12c.44-.51.87-1.08 1.5-1.37.19-.08.56.33.42.49-.51.61-1.26 1.03-1.99 1.37-.15.06-.03-.36.07-.49m-.1 3.22c.42-.66 1-1.26 1.68-1.63.21-.11.72.33.52.46-.67.47-1.31 1.1-1.91 1.69-.15.14-.4-.36-.29-.52m2.54 1.44c-.56.89-1.22 1.77-2.08 2.38-.2.14-.58-.45-.39-.62.79-.72 1.46-1.57 2.2-2.28.15-.13.37.36.26.52m.51-.88c-.24 0-.43-.19-.43-.41s.19-.4.43-.4.44.18.44.4-.2.41-.44.41m-.27-3.6c0-.23.14-.41.32-.41s.33.18.33.41-.15.41-.33.41-.32-.18-.32-.41m.77-9.29c-.57.58-1.21 1.1-1.88 1.56-.12.08-.34.12-.42 0-.11-.17-.09-.43.03-.59.38-.52.84-1.01 1.39-1.34.26-.15.63-.12.91 0 .11.04.06.27-.03.36m-2.72 25.37c-.65.38-1.03 1.09-1.44 1.6-.23.29-1.27-.16-1.04-.47.51-.62 1.27-1.11 1.6-1.69.13-.23.56-.14.78 0 .15.1.25.46.1.55m4.4 1.47c-.22 0-.41-.16-.41-.36s.19-.36.41-.36.4.15.4.36-.18.36-.4.36m7.59-18.29c.16 0 .3.14.3.31s-.14.3-.3.3-.29-.13-.29-.3c0-.18.13-.31.29-.31m-.3-5.96c.27 0 .51.16.51.36s-.23.36-.51.36-.51-.16-.51-.36.22-.36.51-.36m-.99 1.94c0 .27-.23.5-.51.5s-.5-.23-.5-.5.23-.51.5-.51.51.23.51.51m-.27-3.02c0 .22-.15.39-.33.39-.17 0-.32-.17-.32-.39s.15-.39.32-.39c.18 0 .33.18.33.39m-.39-3.48c.16 0 .29.12.29.27s-.13.28-.29.28-.28-.12-.28-.28.13-.27.28-.27m-4.9 1.43c.18 0 .32.15.32.34s-.14.34-.32.34-.33-.14-.33-.34.15-.34.33-.34m-1.79 1.97c0-.24.18-.44.42-.44s.42.2.42.44-.2.44-.42.44-.42-.2-.42-.44m.7 12.81c-.14 0-.24-.15-.24-.33 0-.17.1-.32.24-.32s.24.15.24.32c0 .18-.1.33-.24.33m.01-2.96c-.18 0-.32-.16-.32-.36s.15-.36.32-.36.33.16.33.36-.14.36-.33.36m.33-1.07c.14-.47.52-.83.87-1.14.1-.09.31-.11.39 0 .16.2.33.53.19.75-.2.33-.64.48-1.01.59-.16.05-.5-.04-.45-.19m1.1 12.29c-.2 0-.34-.2-.34-.44s.14-.44.34-.44c.18 0 .34.2.34.44s-.16.44-.34.44m.01-6.64c-.2 0-.36-.15-.36-.34s.15-.34.36-.34.35.15.35.34-.15.34-.35.34m2.17-4.46c-.24.04-.49-.31-.71-.19-.48.25-.7.85-1.14 1.17-.13.09-.35.07-.49 0-.07-.04-.05-.18 0-.26.42-.63.67-1.51 1.37-1.79.47-.18 1 .35 1.34.72.11.13-.19.33-.36.36m-.51-6.55c-.37 0-.66-.27-.66-.59s.29-.59.66-.59.67.26.67.59-.3.59-.67.59m.54 2.44c0 .21-.24.39-.54.39s-.54-.18-.54-.39.25-.39.54-.39.54.18.54.39m-2-4.05c-.16.14-.73.08-.62-.1.75-1.16 1.88-2.04 2.7-3.14.08-.11.01-.29-.07-.39-.29-.45-.83-.74-1.01-1.24-.07-.17.27-.46.42-.36.54.35.63 1.29 1.25 1.46.42.12.6-.65.99-.84.14-.07.58-.01.48.11-1.28 1.6-2.65 3.11-4.15 4.49m2.56-.24c0-.32.17-.58.38-.58s.36.26.36.58-.16.59-.36.59-.38-.27-.38-.59m.26 2.95c0-.15.16-.28.33-.28s.33.12.33.28-.15.27-.33.27-.33-.12-.33-.27m.2 9.13c.38-.72 1-1.31 1.66-1.79.15-.1.38.08.5.23.06.1-.02.26-.1.33-.72.48-1.13 1.21-1.59 1.75-.15.18-.57-.32-.46-.52m2.1 1.91c0 .13-.12.24-.26.24-.15 0-.27-.11-.27-.24s.12-.25.27-.25c.14 0 .26.11.26.25m.04 6.39c-.51.63-1.03 1.27-1.69 1.72-.16.11-.09-.41.02-.56.27-.44.75-.72 1.04-1.14.06-.11.05-.28-.03-.38-.29-.37-1.5-.94-1.03-.96.64-.03 1.19.54 1.69.93.1.08.07.29 0 .39m.26-10.29c-.18-.09-.09-.41 0-.59.09-.21.25-.48.49-.49.33-.01.87.09.9.42.03.3-.54.27-.81.4-.19.08-.4.36-.58.26m.93 5.5c-.14 0-.24-.1-.24-.23 0-.12.1-.22.24-.22.12 0 .25.1.25.22 0 .13-.12.23-.25.23m3.32-.12c-.12 0-.23-.08-.23-.17s.1-.16.23-.16.23.06.23.16c0 .09-.1.17-.23.17m1.53-1.44c-.16 0-.29-.19-.29-.42 0-.24.13-.43.29-.43s.29.19.29.43c0 .23-.13.42-.29.42"/>
  </g>
  <path d="m1701.45 158.05c0 19.78-10.4 30.33-28.79 30.33s-29.2-10.55-29.2-30.33v-85.83h-27.98v87.42c0 34.38 25.79 53.92 57.18 53.92s56.78-19.54 56.78-53.92v-87.42h-27.99z" fill="#007377"/>
  <path d="m1434 72.24h28.47v138.3h-28.47z" fill="#007377"/>
  <path d="m1230.77 72.24h28.47v138.3h-28.47z" fill="#007377"/>
  <path d="m555.72 129.77h-59.36v-57.95h-28.56v138.72h28.56v-55.27h59.36v55.27h28.56v-138.72h-28.56z" fill="#007377"/>
  <path d="m447.24 124.44c0-33.86-20.74-52.62-59.49-52.62l-38.65.22v138.5h28.58v-33.97l10.37.07c2.65 0 6.51-.21 9.17-.61l18.54 34.51h33.04l-24.45-42.67c10.6-4.99 22.9-20.19 22.9-43.43zm-60.01 26.31h-9.55v-52.89h9.25c23.61 0 30.44 13.21 30.44 26.38 0 19.59-10.38 26.51-30.14 26.51z" fill="#007377"/>
  <path d="m1376.68 150.06-84.58-78.33h-4.68v138.81h28.58v-75.74l84.59 75.69h4.67v-138.81h-28.58z" fill="#007377"/>
  <path d="m854.29 149.98-84.58-78.33h-4.68v138.82h28.58v-75.75l84.59 75.7h4.67v-138.81h-28.58z" fill="#007377"/>
  <path d="m1875.02 71.73-60.59 73.26-61.59-73.26h-5.23v138.81h28.6v-51.63l-.04-20.03 28.66 35.05c4.82 5.66 13.58 5.66 18.38-.03l28.67-35.02v71.66h28.58v-138.81z" fill="#007377"/>
  <path d="m1153.94 72.24h-28.48v138.3h84.32v-25.01h-55.84z" fill="#007377"/>
  <path d="m1602.05 72.21-35.55.01-45.54 62.58v-62.57l-28.47.01v138.3l28.47-.01v-32.21l14.2-18.01 35.94 50.21 34.38-.01-52.43-71.19z" fill="#007377"/>
  <path d="m1105.15 72.21-35.55.01-45.54 62.58v-62.57l-28.47.01v138.3l28.47-.01v-32.21l14.2-18.01 35.95 50.21 34.37-.01-52.43-71.19z" fill="#007377"/>
  <path d="m673.37 70.29c-39.95 0-71.74 30.17-71.74 71.13s31.79 71.14 71.74 71.14 71.75-30.17 71.75-71.14-31.8-71.13-71.75-71.13zm0 116.79c-25.27 0-42.39-19.77-42.39-45.65s17.12-45.65 42.39-45.65 42.39 19.77 42.39 45.65-17.12 45.65-42.39 45.65z" fill="#007377"/>
  <path d="m695.46 25.39c-7.91 0-15.4 6.89-15.4 15.41s7.5 15.4 15.4 15.4 15.4-6.89 15.4-15.4-7.29-15.41-15.4-15.41z" fill="#007377"/>
  <path d="m651.28 25.39c-7.91 0-15.4 6.89-15.4 15.41s7.5 15.4 15.4 15.4 15.4-6.89 15.4-15.4-7.29-15.41-15.4-15.41z" fill="#007377"/>
  <path d="m903.44 124.69h69.15v28.47h-69.15z" fill="#007377"/>
  <path d="m388.1 316.87c3.07-1.01 5.84-2.49 8.32-4.44 2.47-1.95 4.54-4.31 6.21-7.1 1.66-2.79 2.81-5.95 3.44-9.48h-8.37c-.5 2.38-1.36 4.49-2.58 6.33-1.23 1.83-2.71 3.37-4.45 4.62s-3.67 2.19-5.79 2.82c-2.11.63-4.32.95-6.61.95-4.18 0-7.97-1.06-11.35-3.17s-6.07-5.23-8.06-9.34c-1.99-4.12-2.99-9.16-2.99-15.15s1-11.03 2.99-15.15 4.68-7.23 8.06-9.35c3.38-2.11 7.17-3.17 11.35-3.17 2.29 0 4.5.32 6.61.94 2.11.63 4.04 1.57 5.79 2.82s3.23 2.78 4.45 4.6c1.23 1.82 2.09 3.94 2.58 6.34h8.37c-.63-3.55-1.78-6.72-3.44-9.5-1.67-2.78-3.73-5.14-6.21-7.08-2.47-1.95-5.25-3.42-8.32-4.44-3.07-1.01-6.35-1.52-9.83-1.52-5.89 0-11.13 1.44-15.72 4.32s-8.2 6.97-10.83 12.28-3.95 11.61-3.95 18.89 1.32 13.58 3.95 18.89 6.24 9.4 10.83 12.28 9.83 4.32 15.72 4.32c3.49 0 6.76-.51 9.83-1.52z"/>
  <path d="m450.48 248.35h-8.64l-25.37 69.09h8.77l6.95-19.57h27.94l6.95 19.57h8.77zm-15.66 42.11 11.07-31.17h.54l11.07 31.17h-22.67z"/>
  <path d="m557.24 248.35h-9.99l-23.48 57.36h-.81l-23.48-57.36h-9.99v69.1h7.83v-52.5h.67l21.6 52.5h7.55l21.59-52.5h.68v52.5h7.83z"/>
  <path d="m585.18 292.21h15.11c5.38 0 9.78-.98 13.22-2.95s5.99-4.62 7.64-7.94c1.65-3.33 2.48-7.03 2.48-11.1s-.83-7.76-2.5-11.07-4.22-5.93-7.67-7.88-7.89-2.92-13.31-2.92h-23.35v69.09h8.37v-25.23zm14.71-36.43c3.76 0 6.77.62 9.04 1.87s3.92 2.96 4.94 5.14 1.54 4.66 1.54 7.42-.51 5.25-1.54 7.44c-1.02 2.19-2.66 3.93-4.91 5.21s-5.23 1.92-8.94 1.92h-14.84v-29.01h14.71z"/>
  <path d="m681.01 315.47c4.03-2.12 7.15-5.04 9.36-8.74s3.32-7.91 3.32-12.63v-45.75h-8.37v45.07c0 3.37-.74 6.37-2.21 8.99s-3.59 4.68-6.36 6.17-6.07 2.24-9.92 2.24-7.15-.75-9.9-2.24-4.87-3.55-6.36-6.17-2.23-5.62-2.23-8.99v-45.07h-8.37v45.75c0 4.72 1.11 8.93 3.32 12.63s5.34 6.61 9.36 8.74c4.03 2.12 8.75 3.19 14.17 3.19s10.14-1.06 14.17-3.19z"/>
  <path d="m748.68 316c3.72-1.78 6.56-4.17 8.5-7.19 1.95-3.01 2.92-6.39 2.92-10.12 0-3.24-.66-5.97-1.99-8.2s-3.01-4.05-5.04-5.48c-2.04-1.43-4.16-2.56-6.38-3.39s-4.22-1.48-6.02-1.96l-7.02-1.89c-1.28-.34-2.69-.78-4.22-1.33s-2.99-1.26-4.39-2.12c-1.4-.87-2.54-1.96-3.42-3.27-.89-1.32-1.33-2.9-1.33-4.74 0-2.2.63-4.17 1.91-5.9 1.27-1.73 3.05-3.09 5.33-4.08s4.95-1.48 8.01-1.48c4.18 0 7.71.94 10.59 2.83s4.52 4.54 4.92 7.96h8.1c-.11-3.49-1.19-6.6-3.22-9.34-2.04-2.74-4.79-4.91-8.25-6.49-3.46-1.59-7.42-2.38-11.88-2.38s-8.4.8-11.96 2.41-6.4 3.86-8.5 6.75-3.15 6.27-3.15 10.14c0 4.66 1.57 8.42 4.72 11.3s7.42 5.09 12.82 6.65l8.5 2.43c2.43.67 4.69 1.46 6.78 2.36s3.78 2.07 5.06 3.51 1.92 3.31 1.92 5.6c0 2.52-.74 4.72-2.23 6.59-1.48 1.88-3.5 3.34-6.04 4.39s-5.41 1.57-8.6 1.57c-2.74 0-5.3-.41-7.67-1.23s-4.33-2.08-5.87-3.78-2.42-3.85-2.65-6.46h-8.64c.27 3.78 1.43 7.1 3.49 9.95 2.06 2.86 4.89 5.08 8.5 6.68s7.89 2.4 12.84 2.4c5.31 0 9.82-.89 13.54-2.67z"/>
  <path d="m844.5 315.02c3.4-1.62 5.88-3.81 7.46-6.58 1.57-2.77 2.36-5.88 2.36-9.34 0-3.64-.72-6.72-2.16-9.24s-3.23-4.45-5.36-5.8-4.26-2.09-6.38-2.23v-.67c1.98-.54 3.82-1.37 5.52-2.5s3.07-2.65 4.12-4.59 1.57-4.39 1.57-7.35c0-3.37-.76-6.45-2.29-9.23s-3.86-4.99-6.98-6.65-7.1-2.48-11.91-2.48h-24.16v69.09h24.96c5.44 0 9.86-.81 13.26-2.43zm-29.85-59.24h15.79c4.59 0 7.94 1.06 10.05 3.19s3.17 4.71 3.17 7.74c0 2.43-.6 4.54-1.81 6.34-1.2 1.8-2.82 3.19-4.86 4.18s-4.31 1.48-6.83 1.48h-15.52v-22.94zm0 30.22h17c3.01 0 5.62.6 7.83 1.8s3.9 2.8 5.09 4.79 1.79 4.16 1.79 6.49c0 3.04-1.15 5.62-3.46 7.74-2.31 2.13-6.19 3.19-11.66 3.19h-16.6v-24.02z"/>
  <path d="m899 248.35h-8.64l-25.37 69.09h8.77l6.95-19.57h27.94l6.95 19.57h8.77zm-15.65 42.11 11.07-31.17h.54l11.07 31.17h-22.67z"/>
  <path d="m977.22 313.28c4.9-2.78 8.64-6.76 11.2-11.94s3.85-11.38 3.85-18.57-1.27-13.3-3.81-18.44-6.2-9.09-10.96-11.84c-4.77-2.75-10.5-4.13-17.21-4.13h-22.27v69.09h21.32c7.02 0 12.98-1.39 17.88-4.17zm-30.84-57.5h13.36c5.4 0 9.91 1.08 13.53 3.26 3.62 2.17 6.34 5.27 8.16 9.31s2.73 8.84 2.73 14.42-.92 10.47-2.77 14.54c-1.84 4.07-4.64 7.21-8.4 9.41s-8.49 3.31-14.2 3.31h-12.41z"/>
  <path d="m1093.5 248.35h-8.23v54.39h-.67l-37.79-54.39h-8.1v69.1h8.37v-54.25h.68l37.64 54.25h8.1z"/>
  <path d="m1155.32 310.02h-33.87v-23.48h31.17v-7.42h-31.17v-23.34h33.33v-7.43h-41.7v69.1h42.24z"/>
  <path d="m1213.77 315.47c4.03-2.12 7.15-5.04 9.36-8.74s3.32-7.91 3.32-12.63v-45.75h-8.37v45.07c0 3.37-.74 6.37-2.21 8.99s-3.59 4.68-6.36 6.17-6.07 2.24-9.92 2.24-7.15-.75-9.9-2.24-4.87-3.55-6.36-6.17-2.23-5.62-2.23-8.99v-45.07h-8.37v45.75c0 4.72 1.11 8.93 3.32 12.63s5.34 6.61 9.36 8.74c4.03 2.12 8.75 3.19 14.17 3.19s10.14-1.06 14.17-3.19z"/>
  <path d="m1281.44 316c3.72-1.78 6.56-4.17 8.5-7.19 1.95-3.01 2.92-6.39 2.92-10.12 0-3.24-.66-5.97-1.99-8.2s-3.01-4.05-5.04-5.48c-2.04-1.43-4.16-2.56-6.38-3.39s-4.22-1.48-6.02-1.96l-7.02-1.89c-1.28-.34-2.69-.78-4.22-1.33s-2.99-1.26-4.39-2.12c-1.4-.87-2.54-1.96-3.42-3.27-.89-1.32-1.33-2.9-1.33-4.74 0-2.2.63-4.17 1.91-5.9 1.27-1.73 3.05-3.09 5.33-4.08s4.95-1.48 8.01-1.48c4.18 0 7.71.94 10.59 2.83s4.52 4.54 4.92 7.96h8.1c-.11-3.49-1.19-6.6-3.22-9.34-2.04-2.74-4.79-4.91-8.25-6.49-3.46-1.59-7.42-2.38-11.88-2.38s-8.4.8-11.96 2.41-6.4 3.86-8.5 6.75-3.15 6.27-3.15 10.14c0 4.66 1.57 8.42 4.72 11.3s7.42 5.09 12.82 6.65l8.5 2.43c2.43.67 4.69 1.46 6.78 2.36s3.78 2.07 5.06 3.51 1.92 3.31 1.92 5.6c0 2.52-.74 4.72-2.23 6.59-1.48 1.88-3.5 3.34-6.04 4.39s-5.41 1.57-8.6 1.57c-2.74 0-5.3-.41-7.67-1.23s-4.33-2.08-5.87-3.78-2.42-3.85-2.65-6.46h-8.64c.27 3.78 1.43 7.1 3.49 9.95 2.06 2.86 4.89 5.08 8.5 6.68s7.89 2.4 12.84 2.4c5.31 0 9.82-.89 13.54-2.67z"/>
  <path d="m1335.79 255.78h21.72v-7.43h-51.82v7.43h21.73v61.67h8.37z"/>
  <path d="m1393.29 248.35h-8.64l-25.37 69.09h8.77l6.95-19.57h27.94l6.95 19.57h8.77zm-15.65 42.11 11.07-31.17h.54l11.07 31.17h-22.67z"/>
  <path d="m1471.5 313.28c4.9-2.78 8.64-6.76 11.2-11.94s3.85-11.38 3.85-18.57-1.27-13.3-3.81-18.44-6.2-9.09-10.96-11.84c-4.77-2.75-10.5-4.13-17.21-4.13h-22.27v69.09h21.32c7.02 0 12.98-1.39 17.88-4.17zm-30.83-57.5h13.36c5.4 0 9.91 1.08 13.53 3.26 3.62 2.17 6.34 5.27 8.16 9.31s2.73 8.84 2.73 14.42-.92 10.47-2.77 14.54c-1.84 4.07-4.64 7.21-8.4 9.41s-8.49 3.31-14.2 3.31h-12.41z"/>
  <path d="m1526.92 255.78h21.72v-7.43h-51.82v7.43h21.73v61.67h8.37z"/>
</svg>