<svg xmlns="http://www.w3.org/2000/svg" xmlns:xlink="http://www.w3.org/1999/xlink" viewBox="0 0 260 56">
    
    <title>Logo/Hoyer Group L</title>
    <desc>Created with Sketch.</desc>
    <g id="✅-HOYERRELAUNCH-15---Landingpage" stroke="none" stroke-width="1" fill="none" fill-rule="evenodd">
        <g id="P08_Landingpage-1440" transform="translate(-1063.000000, -50.000000)" fill-rule="nonzero">
            <g id="Component/Header-Landingpage-1440">
                <g id="Navi_Header_desktop">
                    <g id="Logo/Hoyer-Group-L" transform="translate(1063.375576, 50.000000)">
                        <g id="Hoyer-Group-L">
                            <path d="M220.341014,9.17990692 C220.341014,10.9085907 218.483871,10.9085907 218.483871,10.9085907 L207.460829,10.9085907 L207.460829,7.74927207 L219.322581,7.74927207 C219.322581,7.74927207 220.341014,7.86849164 220.341014,9.17990692 M232.142857,8.94146778 C232.142857,4.47073389 228.428571,0.834536992 223.875576,0.834536992 L196.018433,0.834536992 L196.018433,27.8377697 L207.460829,27.8377697 L207.460829,17.2272279 L213.631336,17.2272279 L220.16129,27.8377697 L232.202765,27.8377697 L225.43318,16.8695692 C229.267281,16.1542518 232.142857,12.8757136 232.142857,8.94146778" id="Shape" fill="#E3000F"/>
                            <polygon id="Path" fill="#E3000F" points="147.43318 27.8377697 179.423963 27.8377697 179.423963 20.9826444 158.576037 20.9826444 158.576037 17.8233258 176.788018 17.8233258 176.788018 10.9682005 158.576037 10.9682005 158.576037 7.74927207 179.423963 7.74927207 179.423963 0.834536992 147.43318 0.834536992"/>
                            <polygon id="Path" fill="#E3000F" points="120.294931 20.1481074 132.875576 0.894146778 120.294931 0.894146778 114.543779 10.4913222 108.852535 0.834536992 96.2119816 0.834536992 108.792627 20.0884976 108.792627 27.8377697 120.294931 27.8377697"/>
                            <path d="M73.8064516,14.2467387 C73.8064516,15.2004952 73.6866359,16.094642 73.5069124,16.8695692 C73.3271889,17.7041062 72.9677419,18.4790334 72.4884793,19.134741 C71.5898618,20.5653759 69.2534562,21.5191324 66.4976959,21.5191324 C63.8018433,21.5191324 61.5253456,20.5653759 60.5668203,19.1943508 C60.0276498,18.4790334 59.6082949,17.6444964 59.4285714,16.6907398 C59.2488479,15.9754224 59.1889401,15.1408854 59.1889401,14.2467387 C59.1889401,13.4122017 59.2488479,12.6372745 59.4285714,11.9815668 C59.7281106,10.0740537 60.8663594,8.52419928 62.3640553,7.86849164 C63.5023041,7.33200358 64.9400922,6.97434487 66.5576037,6.97434487 C68.1751152,6.97434487 69.6728111,7.33200358 70.8110599,7.92810143 C71.1705069,8.10693078 71.4700461,8.28576014 71.7695853,8.58380907 C72.0092166,8.76263842 72.1889401,8.94146778 72.3087558,9.17990692 C72.9078341,9.89522434 73.3271889,10.8489809 73.5668203,11.921957 C73.7465438,12.5180549 73.8064516,13.3525919 73.8064516,14.2467387 M84.9493088,14.3659582 C84.9493088,12.6372745 84.7096774,10.9682005 84.2903226,9.59717541 C83.7511521,7.51083293 82.6728111,5.66292959 81.1152074,4.23229475 C80.6958525,3.81502625 80.2764977,3.45736754 79.7373272,3.09970883 C78.9585253,2.56322076 78.1797235,2.14595227 77.281106,1.84790334 C74.4654378,0.715317422 70.6912442,0 66.4976959,0 C62.483871,0 58.8294931,0.655707637 56.0138249,1.78829356 C52.2995392,3.04009904 49.483871,6.13980787 48.6451613,9.89522434 C48.2857143,11.2066396 48.1059908,12.756494 48.1059908,14.3659582 C48.1059908,16.1542518 48.3456221,17.763716 48.764977,19.1943508 C49.2442396,21.101864 50.2626728,22.8305477 51.5806452,24.2015728 C53.9170507,26.8840131 59.7281106,28.7915262 66.4976959,28.7915262 C73.4470046,28.7915262 79.3179724,26.8244033 81.5345622,24.0227434 C82.7327189,22.7709379 83.6313364,21.2806933 84.1105991,19.6116193 C84.6497696,18.0617649 84.9493088,16.2734714 84.9493088,14.3659582" id="Shape" fill="#E3000F"/>
                            <polygon id="Path" fill="#E3000F" points="23.483871 0.894146778 23.483871 10.9682005 11.4423963 10.9682005 11.4423963 0.894146778 0.239631336 0.894146778 0.239631336 27.8973795 11.4423963 27.8973795 11.4423963 17.8233258 23.483871 17.8233258 23.483871 27.8973795 34.6866359 27.8973795 34.6866359 0.894146778"/>
                            <g id="Group" transform="translate(146.175115, 41.130752)" fill="#555555">
                                <path d="M110.709677,4.53034367 C110.709677,6.0205883 109.571429,6.91473508 107.953917,6.91473508 C107.714286,6.91473508 107.474654,6.91473508 107.175115,6.8551253 L107.175115,2.32478162 C107.474654,2.32478162 107.774194,2.32478162 108.133641,2.32478162 C109.930876,2.32478162 110.709677,3.15931861 110.709677,4.53034367 M113.40553,4.4111241 C113.40553,1.72868377 111.548387,0.178829356 108.193548,0.178829356 C106.875576,0.178829356 105.617512,0.178829356 104.539171,0.238439141 L104.539171,13.8294702 L107.175115,13.8294702 L107.175115,9.06068735 C107.474654,9.12029713 107.834101,9.12029713 108.073733,9.12029713 C111.428571,9.12029713 113.40553,7.03395465 113.40553,4.4111241" id="Shape"/>
                                <path d="M89.3824885,8.58380907 L89.3824885,0.238439141 L86.7465438,0.238439141 L86.7465438,8.70302864 C86.7465438,11.0278103 85.9078341,11.8623472 83.8709677,11.8623472 C81.59447,11.8623472 81.0552995,10.6701515 81.0552995,8.94146778 L81.0552995,0.238439141 L78.4792627,0.238439141 L78.4792627,9.12029713 C78.4792627,11.7431277 79.437788,14.0679093 83.7511521,14.0679093 C87.3456221,14.0679093 89.3824885,12.3392255 89.3824885,8.58380907" id="Path"/>
                                <path d="M62.0645161,7.09356444 C62.0645161,9.59717541 60.0875576,11.6239081 57.6912442,11.6239081 C55.2949309,11.6239081 53.3179724,9.59717541 53.3179724,7.09356444 C53.3179724,4.58995346 55.2949309,2.56322076 57.6912442,2.56322076 C60.0875576,2.56322076 62.0645161,4.58995346 62.0645161,7.09356444 M64.5207373,7.09356444 C64.5207373,3.2189284 61.4654378,0.0596097852 57.6912442,0.0596097852 C53.9170507,0.0596097852 50.8617512,3.2189284 50.8617512,7.09356444 C50.8617512,10.9682005 53.9170507,14.1275191 57.6912442,14.1275191 C61.4654378,14.1275191 64.5207373,10.9682005 64.5207373,7.09356444" id="Shape"/>
                                <path d="M34.3271889,4.29190453 C34.3271889,5.54371002 33.3686636,6.37824701 31.7511521,6.37824701 C31.3317972,6.37824701 30.9723502,6.37824701 30.7926267,6.31863723 L30.7926267,2.38439141 C31.0322581,2.32478162 31.4516129,2.32478162 31.8110599,2.32478162 C33.5483871,2.32478162 34.3271889,2.98048926 34.3271889,4.29190453 M37.0829493,3.99385561 C37.0829493,1.1921957 35.1658986,0.178829356 32.1105991,0.178829356 C30.5529954,0.178829356 29.235023,0.178829356 28.156682,0.238439141 L28.156682,13.8294702 L30.7926267,13.8294702 L30.7926267,8.22615035 L31.0322581,8.22615035 L34.6866359,13.8294702 L37.921659,13.8294702 L34.7465438,9.2395167 C34.4470046,8.76263842 34.0276498,8.22615035 33.6682028,7.74927207 C35.6451613,7.45122315 37.0829493,6.0205883 37.0829493,3.99385561" id="Shape"/>
                                <path d="M7.36866359,14.0679093 C8.98617512,14.0679093 10.6635945,13.7698604 12.0414747,13.2333723 L12.0414747,6.73590572 L9.40552995,6.73590572 L9.40552995,11.4450788 C8.86635945,11.6239081 8.32718894,11.6835179 7.66820276,11.6835179 C4.85253456,11.6835179 3.29493088,10.0144439 3.29493088,7.09356444 C3.29493088,4.53034367 4.61290323,2.38439141 7.84792627,2.38439141 C9.10599078,2.38439141 10.3041475,2.62283055 11.3225806,3.04009904 L11.8617512,0.655707637 C10.7834101,0.298048926 9.40552995,0.0596097852 7.96774194,0.0596097852 C3.05529954,0.0596097852 0.359447005,3.04009904 0.359447005,7.45122315 C0.419354839,11.5046885 2.87557604,14.0679093 7.36866359,14.0679093" id="Path"/>
                            </g>
                        </g>
                    </g>
                </g>
            </g>
        </g>
    </g>
</svg>