<svg xmlns="http://www.w3.org/2000/svg" width="144" height="33" viewBox="0 0 144 33" fill="none">
<path fill-rule="evenodd" clip-rule="evenodd" d="M23.0726 32.0696C23.0726 32.283 22.9031 32.4979 22.6894 32.4979H14.3921C14.1788 32.4979 13.9226 32.4547 13.7959 32.1982L9.4395 23.8729H7.875V31.8532C7.875 32.241 7.57987 32.4979 7.155 32.4979H0.720375C0.29775 32.4979 0 32.241 0 31.8532V2.39136C0 1.70549 0.212625 1.27836 0.89025 1.14899L6.73237 0.247864H6.98775C7.494 0.247864 7.875 0.461239 7.875 1.10586V18.6229H9.4395L14.2642 10.3811C14.4349 10.0395 14.6494 9.99787 14.8631 9.99787H15.0765L22.4753 10.1254C22.7752 10.1254 22.86 10.3811 22.86 10.5514C22.86 10.6365 22.8172 10.68 22.8172 10.7242L16.0736 20.7956L23.0306 31.8056C23.0726 31.8904 23.0726 31.9331 23.0726 31.9762V32.0696ZM42.1819 32.3224C40.4044 32.7034 38.4559 32.8729 35.874 32.8729C30.4132 32.8729 25.248 32.0257 25.248 25.5064C25.248 20.2147 28.9309 19.284 31.5135 18.9022L38.625 18.0817V17.0404C38.625 16.023 38.4559 15.4312 37.8229 15.0926C37.3136 14.7967 36.339 14.67 35.154 14.67C32.6149 14.67 29.2275 15.6004 28.38 15.8539C28.2544 15.8962 28.1704 15.8962 28.0436 15.8962C27.7882 15.8962 27.6184 15.7699 27.5768 15.5164L26.8132 12.1286C26.7716 12.0446 26.7716 11.9595 26.7716 11.8759C26.7716 11.4536 27.0255 11.2822 27.3232 11.1559C28.0852 10.8596 32.2324 9.54637 37.0166 9.54637C39.9382 9.54637 42.0967 9.96974 43.5795 10.8172C45.6532 11.9595 46.5 13.8229 46.5 16.3207V27.8362C46.5 31.1805 45.0184 31.6444 42.1819 32.3224ZM38.625 22.0841L35.2099 22.6391C33.801 22.8532 32.6929 23.1956 32.6929 25.4565C32.6929 27.804 34.527 28.188 35.808 28.188C37.2161 28.188 38.625 27.8471 38.625 27.8471V22.0841ZM64.4805 15.1882C62.1334 15.1882 60 15.4886 60 15.4886V31.8562C60 32.2421 59.7011 32.4979 59.2751 32.4979H52.479C52.0485 32.4979 51.75 32.2421 51.75 31.8562V12.8242C51.75 11.2871 53.25 10.8619 55.9507 10.3481C58.05 9.92212 60.8779 9.62287 63.5779 9.62287H64.3489C64.9935 9.62287 65.25 9.87824 65.25 10.6035V14.1652C65.25 14.6764 65.25 15.1882 64.3522 15.1882H64.4805ZM116.625 22.4599C116.625 23.145 116.455 23.8729 115.384 23.8729H102.397C102.397 25.3736 102.997 26.8294 104.454 27.3416C105.355 27.6855 106.638 27.8569 108.309 27.8569C110.882 27.8569 113.324 27.0431 114.011 26.8729H114.14C114.441 26.8729 114.783 27.1714 114.912 27.6431L115.554 30.3859C115.554 30.5141 115.596 30.5992 115.596 30.6866C115.596 31.1141 115.339 31.4156 115.041 31.5007C113.841 32.0152 110.882 33 106.853 33C98.4956 33 94.4243 30.2572 94.4243 21.387C94.4243 12.4699 97.383 9.38362 105.612 9.38362C109.724 9.38362 112.468 10.1996 114.14 11.9137C115.984 13.7996 116.625 16.2877 116.625 20.4019V22.4599ZM108.774 18.6911C108.774 17.9239 108.687 17.6501 108.602 17.0535C108.259 15.09 107.347 14.4502 105.601 14.4502C103.297 14.4502 102.572 15.3045 102.358 16.7977C102.23 17.6501 102.23 18.2224 102.23 19.3729H108.729C108.774 19.1602 108.774 18.9041 108.774 18.6911ZM144 31.8967C144 32.1544 143.83 32.4979 143.571 32.4979H136.331C136.029 32.4979 135.772 32.2822 135.643 32.025L130.887 24.8681L126.773 31.9819C126.601 32.2822 126.386 32.4979 126.042 32.4979H118.758C118.545 32.4979 118.372 32.1544 118.372 31.8967C118.372 31.8105 118.372 31.7254 118.416 31.6822L125.914 21.2254L119.315 11.07C119.273 10.9837 119.228 10.8555 119.228 10.7704C119.228 10.3826 119.617 9.99787 119.787 9.99787H126.515C126.944 9.99787 127.2 10.0399 127.501 10.5547L131.573 17.3269L134.915 10.599C135.171 10.0399 135.473 9.99787 135.945 9.99787H142.544C142.715 9.99787 143.102 10.3826 143.102 10.7704C143.102 10.8555 143.102 10.9837 143.016 11.07L136.501 21.2254L143.959 31.6822C144 31.7254 144 31.8105 144 31.8967ZM81.75 27.7121C81.75 27.7121 80.6389 27.9694 79.659 27.9694C76.7992 27.9694 76.0327 27.3281 76.0327 21.0982C76.0327 15.1219 76.7134 14.9092 79.317 14.9092C80.214 14.9092 81.75 15.1219 81.75 15.1219V27.7121ZM88.7873 0.785239C88.7029 0.785239 88.6215 0.827239 88.5368 0.827239L82.629 1.70774C81.9169 1.83411 81.75 2.20911 81.75 2.92124V10.4261C80.9498 10.2139 79.0856 9.79237 76.8904 9.79237C69.6848 9.79237 68.136 14.7349 68.136 21.6052C68.136 30.7387 71.4461 32.8729 79.6973 32.8729C82.0024 32.8729 84.9743 32.5807 87.2389 31.8679C89.4596 31.1561 89.625 29.6055 89.625 28.5589V1.62336C89.625 1.03574 89.2489 0.785239 88.7873 0.785239Z" fill="#507295"/>
</svg>