<svg xmlns="http://www.w3.org/2000/svg" xmlns:xlink="http://www.w3.org/1999/xlink" width="240" height="46" viewBox="0 0 240 46">
  <defs>
    <clipPath id="a">
      <rect width="229.567" height="40.747" transform="translate(0 0)" fill="none"/>
    </clipPath>
    <clipPath id="c">
      <rect width="240" height="46"/>
    </clipPath>
  </defs>
  <g id="b" clip-path="url(#c)">
    <g transform="translate(6 2.626)">
      <g clip-path="url(#a)">
        <path d="M0,37.7a2.648,2.648,0,0,0,.733,1.984,3.1,3.1,0,0,0,2.255.719,3.219,3.219,0,0,0,2.269-.719A2.408,2.408,0,0,0,5.976,37.7l-.23-22.23c-.019-.88-.047-1.744-.085-2.587s-.086-1.592-.145-2.243q-.085-1.149-.171-2.157l.114-.057c.287.593.612,1.218.978,1.868.287.558.626,1.189,1.018,1.9s.821,1.428,1.279,2.157L22.813,36.838a13.227,13.227,0,0,0,.993,1.479,5.92,5.92,0,0,0,1.106,1.108,4.762,4.762,0,0,0,1.364.72,5.584,5.584,0,0,0,1.8.258A4.653,4.653,0,0,0,31.5,39.266,4.669,4.669,0,0,0,32.64,35.83V3.076a2.664,2.664,0,0,0-.731-1.984A3.117,3.117,0,0,0,29.651.373a3.23,3.23,0,0,0-2.269.719,2.416,2.416,0,0,0-.719,1.984l.23,22.23q0,1.353.072,2.6t.159,2.229q.085,1.154.173,2.157l-.145.057q-.459-.889-.947-1.868-.462-.833-1.035-1.9t-1.265-2.155L9.826,3.94A16.819,16.819,0,0,0,8.805,2.459,5.981,5.981,0,0,0,7.7,1.351,4.815,4.815,0,0,0,6.349.632,5.5,5.5,0,0,0,4.569.373,4.667,4.667,0,0,0,1.135,1.51,4.626,4.626,0,0,0,0,4.918Z" fill="#961617"/>
        <path d="M43.042,37.5a2.807,2.807,0,0,0,.805,2.143,3.436,3.436,0,0,0,2.442.762,3.476,3.476,0,0,0,2.485-.762,2.837,2.837,0,0,0,.79-2.143V3.278a2.835,2.835,0,0,0-.79-2.143A3.476,3.476,0,0,0,46.289.373a3.436,3.436,0,0,0-2.442.762,2.806,2.806,0,0,0-.805,2.143Z" fill="#961617"/>
        <path d="M58.916,29.576a17.229,17.229,0,0,0,3.665,5.995,15.808,15.808,0,0,0,5.658,3.8,19.424,19.424,0,0,0,7.27,1.322,21.5,21.5,0,0,0,3.736-.3,18.874,18.874,0,0,0,2.988-.761,13.088,13.088,0,0,0,2.2-.993,6.974,6.974,0,0,0,1.394-1.023,3.456,3.456,0,0,0,.719-.992,2.78,2.78,0,0,0,.23-1.163,2.38,2.38,0,0,0-.159-.864,2.442,2.442,0,0,0-.415-.7,1.854,1.854,0,0,0-.648-.475,2.079,2.079,0,0,0-.848-.171,2.767,2.767,0,0,0-1.22.316q-.648.317-1.552.705a14.421,14.421,0,0,1-2.183.7,13.125,13.125,0,0,1-3.119.316,12.575,12.575,0,0,1-4.927-.949,10.692,10.692,0,0,1-3.893-2.789,13.106,13.106,0,0,1-2.558-4.529,18.936,18.936,0,0,1-.919-6.14,22.019,22.019,0,0,1,.933-6.728A14.282,14.282,0,0,1,67.824,9.3,10.614,10.614,0,0,1,71.6,6.383a11.076,11.076,0,0,1,4.626-.978,12.711,12.711,0,0,1,3.161.332,14.37,14.37,0,0,1,2.139.719q.876.389,1.509.734a2.614,2.614,0,0,0,1.265.344,2.331,2.331,0,0,0,.947-.188A2.491,2.491,0,0,0,86,6.857a2,2,0,0,0,.489-.747,2.662,2.662,0,0,0,.171-.964,3.348,3.348,0,0,0-.214-1.251,3.4,3.4,0,0,0-.762-1.077A6.561,6.561,0,0,0,84.5,1.94a10.717,10.717,0,0,0-1.925-.89A17.4,17.4,0,0,0,76.629.058a19.432,19.432,0,0,0-7.7,1.481,17.076,17.076,0,0,0-6.005,4.255A19.427,19.427,0,0,0,59,12.58a27.579,27.579,0,0,0-1.393,9.073,22.65,22.65,0,0,0,1.308,7.923" fill="#961617"/>
        <path d="M122.458,20.445a20.738,20.738,0,0,1-.918,6.456,14.059,14.059,0,0,1-2.514,4.7,10.453,10.453,0,0,1-3.778,2.877,11.665,11.665,0,0,1-9.383-.014,10.663,10.663,0,0,1-3.807-2.905A14.349,14.349,0,0,1,99.5,26.815a20.335,20.335,0,0,1-.949-6.484,20.573,20.573,0,0,1,.933-6.47,14.008,14.008,0,0,1,2.53-4.7A10.585,10.585,0,0,1,105.78,6.3a11.622,11.622,0,0,1,9.365.014,10.81,10.81,0,0,1,3.822,2.9,14.088,14.088,0,0,1,2.558,4.73,20.687,20.687,0,0,1,.933,6.5m6.724-.6a24.552,24.552,0,0,0-1.322-8.34,17.805,17.805,0,0,0-3.736-6.254,15.828,15.828,0,0,0-5.789-3.912A20.108,20.108,0,0,0,110.88,0a20.535,20.535,0,0,0-7.73,1.41,16.473,16.473,0,0,0-6.018,4.111,18.918,18.918,0,0,0-3.91,6.586,26.047,26.047,0,0,0-1.393,8.827,24.35,24.35,0,0,0,1.336,8.34,17.822,17.822,0,0,0,3.75,6.24,15.9,15.9,0,0,0,5.789,3.9,20.079,20.079,0,0,0,7.457,1.336,20.473,20.473,0,0,0,7.714-1.407,16.571,16.571,0,0,0,6-4.113,18.9,18.9,0,0,0,3.909-6.587,25.953,25.953,0,0,0,1.393-8.8" fill="#961617"/>
        <path d="M143.75,34.853V3.279a2.837,2.837,0,0,0-.79-2.143,3.477,3.477,0,0,0-2.485-.762,3.441,3.441,0,0,0-2.443.762,2.81,2.81,0,0,0-.8,2.143V37.153a3.064,3.064,0,0,0,.79,2.243,3.011,3.011,0,0,0,2.255.807h17.354a2.312,2.312,0,0,0,1.754-.662,2.82,2.82,0,0,0,.632-2.013,2.82,2.82,0,0,0-.632-2.013,2.312,2.312,0,0,0-1.754-.662Z" fill="#961617"/>
        <path d="M187,25.047H174.934l4.13-12.605q.374-1.178.688-2.2t.546-1.825q.259-.919.489-1.721h.114q.2.8.489,1.721.26.8.591,1.825t.733,2.2Zm10.953,12.48a3.5,3.5,0,0,0-.085-.719,11.294,11.294,0,0,0-.432-1.322L186.443,4.6c-.135-.344-.266-.667-.389-.963a8.571,8.571,0,0,0-.387-.805,5.9,5.9,0,0,0-.418-.648c-.142-.19-.3-.382-.475-.574A3.79,3.79,0,0,0,183.3.7a7.815,7.815,0,0,0-4.3,0,3.829,3.829,0,0,0-1.467.907c-.171.192-.33.384-.472.574a7.356,7.356,0,0,0-.432.648,5.235,5.235,0,0,0-.387.805c-.117.3-.24.619-.375.963L164.939,35.571c-.211.615-.348,1.054-.415,1.322a3.148,3.148,0,0,0-.1.779,2.39,2.39,0,0,0,.3,1.191,2.616,2.616,0,0,0,.8.878,4.447,4.447,0,0,0,1.092.546,3.626,3.626,0,0,0,1.194.2,3.264,3.264,0,0,0,1.205-.2,2.34,2.34,0,0,0,.833-.517,3.514,3.514,0,0,0,.606-.949q.257-.574.574-1.524l2.352-7.073h15.257l2.5,7.13c.211.614.391,1.1.545,1.452a2.754,2.754,0,0,0,.575.878,2.707,2.707,0,0,0,.9.589,3.135,3.135,0,0,0,1.194.216,4.126,4.126,0,0,0,1.248-.2,4.209,4.209,0,0,0,1.166-.56,2.959,2.959,0,0,0,.847-.906,2.474,2.474,0,0,0,.33-1.294" fill="#961617"/>
        <path d="M211.035,24.184V37.5a2.814,2.814,0,0,0,.8,2.141,4.355,4.355,0,0,0,4.922,0,2.821,2.821,0,0,0,.8-2.141V24.184L228.475,6.011q.549-.894.819-1.453a2.62,2.62,0,0,0,.273-1.165,2.533,2.533,0,0,0-.3-1.223,3.417,3.417,0,0,0-.79-.978,3.845,3.845,0,0,0-1.106-.659,3.345,3.345,0,0,0-1.248-.245,2.6,2.6,0,0,0-1.021.2,2.675,2.675,0,0,0-.847.576,3.528,3.528,0,0,0-.532.689c-.164.27-.408.709-.733,1.324l-6.655,12.048c-.231.422-.442.826-.632,1.208s-.363.728-.517,1.034c-.152.347-.306.682-.458,1.009h-.114c-.136-.308-.3-.633-.489-.978-.152-.289-.321-.619-.5-.992s-.38-.752-.589-1.137l-7-12.22c-.347-.6-.61-1.031-.791-1.311a6.113,6.113,0,0,0-.531-.7A2.756,2.756,0,0,0,203.938.5a2.639,2.639,0,0,0-1.12-.214,3.458,3.458,0,0,0-1.265.245,4.448,4.448,0,0,0-1.177.674,3.341,3.341,0,0,0-.878,1.035,2.787,2.787,0,0,0-.33,1.352,2.588,2.588,0,0,0,.073.618,4.268,4.268,0,0,0,.2.619,5.057,5.057,0,0,0,.346.676c.143.24.311.5.5.791Z" fill="#961617"/>
      </g>
    </g>
  </g>
</svg>